<svg xmlns="http://www.w3.org/2000/svg" xmlns:xlink="http://www.w3.org/1999/xlink" width="375" height="631" viewBox="0 0 375 631"><defs><style>.a{fill:#fefefe;}.b{fill:none;}.c{opacity:0.64;clip-path:url(#a);}.d{clip-path:url(#b);}.e{fill:rgba(232,223,171,0.41);}</style><clipPath id="a"><path class="a" d="M0,0H375V631H0Z" transform="translate(696.687 2094)"/></clipPath><clipPath id="b"><rect class="b" width="562.745" height="722.685"/></clipPath></defs><g class="c" transform="translate(-696.687 -2094)"><path class="a" d="M0,0H375V631H0Z" transform="translate(696.687 2094)"/><g class="d" transform="translate(541.687 2030.65)"><g transform="translate(-1291.687 -1702.65)"><path class="e" d="M341.881,224.966a33.516,33.516,0,0,0-3.776-15.484l-.632-1.2-52.811.1-.623,1.206a33.48,33.48,0,0,0-3.726,15.377c0,16.614,9.327,28.663,24.48,31.874v25.507c0,2.336-2.664,3.583-6.726,5.22-3.65,1.471-7.794,3.134-7.794,7.13v2.269l41.2-.426v-2.22c0-3.789-4.031-5.3-7.592-6.632-4.134-1.552-6.847-2.744-6.847-5.112,0-6.081-.018-20.448-.027-25.515C332.845,253.257,341.881,241.652,341.881,224.966Zm-27.556,28.089-1.812.354v1.847s.031,19.874.031,27.318c0,5.65,5.641,7.767,9.758,9.309l.686.256-24.883.26c.556-.242,1.117-.466,1.632-.673,4.027-1.623,9.538-3.843,9.538-9.381V253.064l-1.888-.3c-14.143-2.247-22.592-12.641-22.592-27.8a29.15,29.15,0,0,1,2.628-12.1l47.3-.094a29.046,29.046,0,0,1,2.672,12.2C337.4,240.154,329.2,250.132,314.325,253.055Zm-2.969-27.049s-4.1-1.9-5.251-1.726-13.345,7.789-13.345,7.789,10.834,7.273,18.767,7.354,18.538-7.354,18.538-7.354-12.269-7.583-13.587-7.789S311.356,226.006,311.356,226.006Zm-.04,5.377c-4.722,0-14.278.614-14.278.614s8.56-2.534,14.318-2.534S326.092,232,326.092,232,316.038,231.383,311.316,231.383Z" transform="translate(1011.375 1494.37)"/></g><g transform="translate(-1166.687 -1702.65)"><path class="e" d="M341.881,224.966a33.516,33.516,0,0,0-3.776-15.484l-.632-1.2-52.811.1-.623,1.206a33.48,33.48,0,0,0-3.726,15.377c0,16.614,9.327,28.663,24.48,31.874v25.507c0,2.336-2.664,3.583-6.726,5.22-3.65,1.471-7.794,3.134-7.794,7.13v2.269l41.2-.426v-2.22c0-3.789-4.031-5.3-7.592-6.632-4.134-1.552-6.847-2.744-6.847-5.112,0-6.081-.018-20.448-.027-25.515C332.845,253.257,341.881,241.652,341.881,224.966Zm-27.556,28.089-1.812.354v1.847s.031,19.874.031,27.318c0,5.65,5.641,7.767,9.758,9.309l.686.256-24.883.26c.556-.242,1.117-.466,1.632-.673,4.027-1.623,9.538-3.843,9.538-9.381V253.064l-1.888-.3c-14.143-2.247-22.592-12.641-22.592-27.8a29.15,29.15,0,0,1,2.628-12.1l47.3-.094a29.046,29.046,0,0,1,2.672,12.2C337.4,240.154,329.2,250.132,314.325,253.055Zm-2.969-27.049s-4.1-1.9-5.251-1.726-13.345,7.789-13.345,7.789,10.834,7.273,18.767,7.354,18.538-7.354,18.538-7.354-12.269-7.583-13.587-7.789S311.356,226.006,311.356,226.006Zm-.04,5.377c-4.722,0-14.278.614-14.278.614s8.56-2.534,14.318-2.534S326.092,232,326.092,232,316.038,231.383,311.316,231.383Z" transform="translate(1011.375 1494.37)"/></g><g transform="translate(-1041.687 -1702.65)"><path class="e" d="M341.881,224.966a33.516,33.516,0,0,0-3.776-15.484l-.632-1.2-52.811.1-.623,1.206a33.48,33.48,0,0,0-3.726,15.377c0,16.614,9.327,28.663,24.48,31.874v25.507c0,2.336-2.664,3.583-6.726,5.22-3.65,1.471-7.794,3.134-7.794,7.13v2.269l41.2-.426v-2.22c0-3.789-4.031-5.3-7.592-6.632-4.134-1.552-6.847-2.744-6.847-5.112,0-6.081-.018-20.448-.027-25.515C332.845,253.257,341.881,241.652,341.881,224.966Zm-27.556,28.089-1.812.354v1.847s.031,19.874.031,27.318c0,5.65,5.641,7.767,9.758,9.309l.686.256-24.883.26c.556-.242,1.117-.466,1.632-.673,4.027-1.623,9.538-3.843,9.538-9.381V253.064l-1.888-.3c-14.143-2.247-22.592-12.641-22.592-27.8a29.15,29.15,0,0,1,2.628-12.1l47.3-.094a29.046,29.046,0,0,1,2.672,12.2C337.4,240.154,329.2,250.132,314.325,253.055Zm-2.969-27.049s-4.1-1.9-5.251-1.726-13.345,7.789-13.345,7.789,10.834,7.273,18.767,7.354,18.538-7.354,18.538-7.354-12.269-7.583-13.587-7.789S311.356,226.006,311.356,226.006Zm-.04,5.377c-4.722,0-14.278.614-14.278.614s8.56-2.534,14.318-2.534S326.092,232,326.092,232,316.038,231.383,311.316,231.383Z" transform="translate(1011.375 1494.37)"/></g><g transform="translate(-916.687 -1702.65)"><path class="e" d="M341.881,224.966a33.516,33.516,0,0,0-3.776-15.484l-.632-1.2-52.811.1-.623,1.206a33.48,33.48,0,0,0-3.726,15.377c0,16.614,9.327,28.663,24.48,31.874v25.507c0,2.336-2.664,3.583-6.726,5.22-3.65,1.471-7.794,3.134-7.794,7.13v2.269l41.2-.426v-2.22c0-3.789-4.031-5.3-7.592-6.632-4.134-1.552-6.847-2.744-6.847-5.112,0-6.081-.018-20.448-.027-25.515C332.845,253.257,341.881,241.652,341.881,224.966Zm-27.556,28.089-1.812.354v1.847s.031,19.874.031,27.318c0,5.65,5.641,7.767,9.758,9.309l.686.256-24.883.26c.556-.242,1.117-.466,1.632-.673,4.027-1.623,9.538-3.843,9.538-9.381V253.064l-1.888-.3c-14.143-2.247-22.592-12.641-22.592-27.8a29.15,29.15,0,0,1,2.628-12.1l47.3-.094a29.046,29.046,0,0,1,2.672,12.2C337.4,240.154,329.2,250.132,314.325,253.055Zm-2.969-27.049s-4.1-1.9-5.251-1.726-13.345,7.789-13.345,7.789,10.834,7.273,18.767,7.354,18.538-7.354,18.538-7.354-12.269-7.583-13.587-7.789S311.356,226.006,311.356,226.006Zm-.04,5.377c-4.722,0-14.278.614-14.278.614s8.56-2.534,14.318-2.534S326.092,232,326.092,232,316.038,231.383,311.316,231.383Z" transform="translate(1011.375 1494.37)"/></g><g transform="translate(-791.687 -1702.65)"><path class="e" d="M341.881,224.966a33.516,33.516,0,0,0-3.776-15.484l-.632-1.2-52.811.1-.623,1.206a33.48,33.48,0,0,0-3.726,15.377c0,16.614,9.327,28.663,24.48,31.874v25.507c0,2.336-2.664,3.583-6.726,5.22-3.65,1.471-7.794,3.134-7.794,7.13v2.269l41.2-.426v-2.22c0-3.789-4.031-5.3-7.592-6.632-4.134-1.552-6.847-2.744-6.847-5.112,0-6.081-.018-20.448-.027-25.515C332.845,253.257,341.881,241.652,341.881,224.966Zm-27.556,28.089-1.812.354v1.847s.031,19.874.031,27.318c0,5.65,5.641,7.767,9.758,9.309l.686.256-24.883.26c.556-.242,1.117-.466,1.632-.673,4.027-1.623,9.538-3.843,9.538-9.381V253.064l-1.888-.3c-14.143-2.247-22.592-12.641-22.592-27.8a29.15,29.15,0,0,1,2.628-12.1l47.3-.094a29.046,29.046,0,0,1,2.672,12.2C337.4,240.154,329.2,250.132,314.325,253.055Zm-2.969-27.049s-4.1-1.9-5.251-1.726-13.345,7.789-13.345,7.789,10.834,7.273,18.767,7.354,18.538-7.354,18.538-7.354-12.269-7.583-13.587-7.789S311.356,226.006,311.356,226.006Zm-.04,5.377c-4.722,0-14.278.614-14.278.614s8.56-2.534,14.318-2.534S326.092,232,326.092,232,316.038,231.383,311.316,231.383Z" transform="translate(1011.375 1494.37)"/></g><g transform="translate(-1291.687 -1599.65)"><path class="e" d="M341.881,224.966a33.516,33.516,0,0,0-3.776-15.484l-.632-1.2-52.811.1-.623,1.206a33.48,33.48,0,0,0-3.726,15.377c0,16.614,9.327,28.663,24.48,31.874v25.507c0,2.336-2.664,3.583-6.726,5.22-3.65,1.471-7.794,3.134-7.794,7.13v2.269l41.2-.426v-2.22c0-3.789-4.031-5.3-7.592-6.632-4.134-1.552-6.847-2.744-6.847-5.112,0-6.081-.018-20.448-.027-25.515C332.845,253.257,341.881,241.652,341.881,224.966Zm-27.556,28.089-1.812.354v1.847s.031,19.874.031,27.318c0,5.65,5.641,7.767,9.758,9.309l.686.256-24.883.26c.556-.242,1.117-.466,1.632-.673,4.027-1.623,9.538-3.843,9.538-9.381V253.064l-1.888-.3c-14.143-2.247-22.592-12.641-22.592-27.8a29.15,29.15,0,0,1,2.628-12.1l47.3-.094a29.046,29.046,0,0,1,2.672,12.2C337.4,240.154,329.2,250.132,314.325,253.055Zm-2.969-27.049s-4.1-1.9-5.251-1.726-13.345,7.789-13.345,7.789,10.834,7.273,18.767,7.354,18.538-7.354,18.538-7.354-12.269-7.583-13.587-7.789S311.356,226.006,311.356,226.006Zm-.04,5.377c-4.722,0-14.278.614-14.278.614s8.56-2.534,14.318-2.534S326.092,232,326.092,232,316.038,231.383,311.316,231.383Z" transform="translate(1011.375 1494.37)"/></g><g transform="translate(-1166.687 -1599.65)"><path class="e" d="M341.881,224.966a33.516,33.516,0,0,0-3.776-15.484l-.632-1.2-52.811.1-.623,1.206a33.48,33.48,0,0,0-3.726,15.377c0,16.614,9.327,28.663,24.48,31.874v25.507c0,2.336-2.664,3.583-6.726,5.22-3.65,1.471-7.794,3.134-7.794,7.13v2.269l41.2-.426v-2.22c0-3.789-4.031-5.3-7.592-6.632-4.134-1.552-6.847-2.744-6.847-5.112,0-6.081-.018-20.448-.027-25.515C332.845,253.257,341.881,241.652,341.881,224.966Zm-27.556,28.089-1.812.354v1.847s.031,19.874.031,27.318c0,5.65,5.641,7.767,9.758,9.309l.686.256-24.883.26c.556-.242,1.117-.466,1.632-.673,4.027-1.623,9.538-3.843,9.538-9.381V253.064l-1.888-.3c-14.143-2.247-22.592-12.641-22.592-27.8a29.15,29.15,0,0,1,2.628-12.1l47.3-.094a29.046,29.046,0,0,1,2.672,12.2C337.4,240.154,329.2,250.132,314.325,253.055Zm-2.969-27.049s-4.1-1.9-5.251-1.726-13.345,7.789-13.345,7.789,10.834,7.273,18.767,7.354,18.538-7.354,18.538-7.354-12.269-7.583-13.587-7.789S311.356,226.006,311.356,226.006Zm-.04,5.377c-4.722,0-14.278.614-14.278.614s8.56-2.534,14.318-2.534S326.092,232,326.092,232,316.038,231.383,311.316,231.383Z" transform="translate(1011.375 1494.37)"/></g><g transform="translate(-1041.687 -1599.65)"><path class="e" d="M341.881,224.966a33.516,33.516,0,0,0-3.776-15.484l-.632-1.2-52.811.1-.623,1.206a33.48,33.48,0,0,0-3.726,15.377c0,16.614,9.327,28.663,24.48,31.874v25.507c0,2.336-2.664,3.583-6.726,5.22-3.65,1.471-7.794,3.134-7.794,7.13v2.269l41.2-.426v-2.22c0-3.789-4.031-5.3-7.592-6.632-4.134-1.552-6.847-2.744-6.847-5.112,0-6.081-.018-20.448-.027-25.515C332.845,253.257,341.881,241.652,341.881,224.966Zm-27.556,28.089-1.812.354v1.847s.031,19.874.031,27.318c0,5.65,5.641,7.767,9.758,9.309l.686.256-24.883.26c.556-.242,1.117-.466,1.632-.673,4.027-1.623,9.538-3.843,9.538-9.381V253.064l-1.888-.3c-14.143-2.247-22.592-12.641-22.592-27.8a29.15,29.15,0,0,1,2.628-12.1l47.3-.094a29.046,29.046,0,0,1,2.672,12.2C337.4,240.154,329.2,250.132,314.325,253.055Zm-2.969-27.049s-4.1-1.9-5.251-1.726-13.345,7.789-13.345,7.789,10.834,7.273,18.767,7.354,18.538-7.354,18.538-7.354-12.269-7.583-13.587-7.789S311.356,226.006,311.356,226.006Zm-.04,5.377c-4.722,0-14.278.614-14.278.614s8.56-2.534,14.318-2.534S326.092,232,326.092,232,316.038,231.383,311.316,231.383Z" transform="translate(1011.375 1494.37)"/></g><g transform="translate(-916.687 -1599.65)"><path class="e" d="M341.881,224.966a33.516,33.516,0,0,0-3.776-15.484l-.632-1.2-52.811.1-.623,1.206a33.48,33.48,0,0,0-3.726,15.377c0,16.614,9.327,28.663,24.48,31.874v25.507c0,2.336-2.664,3.583-6.726,5.22-3.65,1.471-7.794,3.134-7.794,7.13v2.269l41.2-.426v-2.22c0-3.789-4.031-5.3-7.592-6.632-4.134-1.552-6.847-2.744-6.847-5.112,0-6.081-.018-20.448-.027-25.515C332.845,253.257,341.881,241.652,341.881,224.966Zm-27.556,28.089-1.812.354v1.847s.031,19.874.031,27.318c0,5.65,5.641,7.767,9.758,9.309l.686.256-24.883.26c.556-.242,1.117-.466,1.632-.673,4.027-1.623,9.538-3.843,9.538-9.381V253.064l-1.888-.3c-14.143-2.247-22.592-12.641-22.592-27.8a29.15,29.15,0,0,1,2.628-12.1l47.3-.094a29.046,29.046,0,0,1,2.672,12.2C337.4,240.154,329.2,250.132,314.325,253.055Zm-2.969-27.049s-4.1-1.9-5.251-1.726-13.345,7.789-13.345,7.789,10.834,7.273,18.767,7.354,18.538-7.354,18.538-7.354-12.269-7.583-13.587-7.789S311.356,226.006,311.356,226.006Zm-.04,5.377c-4.722,0-14.278.614-14.278.614s8.56-2.534,14.318-2.534S326.092,232,326.092,232,316.038,231.383,311.316,231.383Z" transform="translate(1011.375 1494.37)"/></g><g transform="translate(-791.687 -1599.65)"><path class="e" d="M341.881,224.966a33.516,33.516,0,0,0-3.776-15.484l-.632-1.2-52.811.1-.623,1.206a33.48,33.48,0,0,0-3.726,15.377c0,16.614,9.327,28.663,24.48,31.874v25.507c0,2.336-2.664,3.583-6.726,5.22-3.65,1.471-7.794,3.134-7.794,7.13v2.269l41.2-.426v-2.22c0-3.789-4.031-5.3-7.592-6.632-4.134-1.552-6.847-2.744-6.847-5.112,0-6.081-.018-20.448-.027-25.515C332.845,253.257,341.881,241.652,341.881,224.966Zm-27.556,28.089-1.812.354v1.847s.031,19.874.031,27.318c0,5.65,5.641,7.767,9.758,9.309l.686.256-24.883.26c.556-.242,1.117-.466,1.632-.673,4.027-1.623,9.538-3.843,9.538-9.381V253.064l-1.888-.3c-14.143-2.247-22.592-12.641-22.592-27.8a29.15,29.15,0,0,1,2.628-12.1l47.3-.094a29.046,29.046,0,0,1,2.672,12.2C337.4,240.154,329.2,250.132,314.325,253.055Zm-2.969-27.049s-4.1-1.9-5.251-1.726-13.345,7.789-13.345,7.789,10.834,7.273,18.767,7.354,18.538-7.354,18.538-7.354-12.269-7.583-13.587-7.789S311.356,226.006,311.356,226.006Zm-.04,5.377c-4.722,0-14.278.614-14.278.614s8.56-2.534,14.318-2.534S326.092,232,326.092,232,316.038,231.383,311.316,231.383Z" transform="translate(1011.375 1494.37)"/></g><g transform="translate(-1291.687 -1496.65)"><path class="e" d="M341.881,224.966a33.516,33.516,0,0,0-3.776-15.484l-.632-1.2-52.811.1-.623,1.206a33.48,33.48,0,0,0-3.726,15.377c0,16.614,9.327,28.663,24.48,31.874v25.507c0,2.336-2.664,3.583-6.726,5.22-3.65,1.471-7.794,3.134-7.794,7.13v2.269l41.2-.426v-2.22c0-3.789-4.031-5.3-7.592-6.632-4.134-1.552-6.847-2.744-6.847-5.112,0-6.081-.018-20.448-.027-25.515C332.845,253.257,341.881,241.652,341.881,224.966Zm-27.556,28.089-1.812.354v1.847s.031,19.874.031,27.318c0,5.65,5.641,7.767,9.758,9.309l.686.256-24.883.26c.556-.242,1.117-.466,1.632-.673,4.027-1.623,9.538-3.843,9.538-9.381V253.064l-1.888-.3c-14.143-2.247-22.592-12.641-22.592-27.8a29.15,29.15,0,0,1,2.628-12.1l47.3-.094a29.046,29.046,0,0,1,2.672,12.2C337.4,240.154,329.2,250.132,314.325,253.055Zm-2.969-27.049s-4.1-1.9-5.251-1.726-13.345,7.789-13.345,7.789,10.834,7.273,18.767,7.354,18.538-7.354,18.538-7.354-12.269-7.583-13.587-7.789S311.356,226.006,311.356,226.006Zm-.04,5.377c-4.722,0-14.278.614-14.278.614s8.56-2.534,14.318-2.534S326.092,232,326.092,232,316.038,231.383,311.316,231.383Z" transform="translate(1011.375 1494.37)"/></g><g transform="translate(-1166.687 -1496.65)"><path class="e" d="M341.881,224.966a33.516,33.516,0,0,0-3.776-15.484l-.632-1.2-52.811.1-.623,1.206a33.48,33.48,0,0,0-3.726,15.377c0,16.614,9.327,28.663,24.48,31.874v25.507c0,2.336-2.664,3.583-6.726,5.22-3.65,1.471-7.794,3.134-7.794,7.13v2.269l41.2-.426v-2.22c0-3.789-4.031-5.3-7.592-6.632-4.134-1.552-6.847-2.744-6.847-5.112,0-6.081-.018-20.448-.027-25.515C332.845,253.257,341.881,241.652,341.881,224.966Zm-27.556,28.089-1.812.354v1.847s.031,19.874.031,27.318c0,5.65,5.641,7.767,9.758,9.309l.686.256-24.883.26c.556-.242,1.117-.466,1.632-.673,4.027-1.623,9.538-3.843,9.538-9.381V253.064l-1.888-.3c-14.143-2.247-22.592-12.641-22.592-27.8a29.15,29.15,0,0,1,2.628-12.1l47.3-.094a29.046,29.046,0,0,1,2.672,12.2C337.4,240.154,329.2,250.132,314.325,253.055Zm-2.969-27.049s-4.1-1.9-5.251-1.726-13.345,7.789-13.345,7.789,10.834,7.273,18.767,7.354,18.538-7.354,18.538-7.354-12.269-7.583-13.587-7.789S311.356,226.006,311.356,226.006Zm-.04,5.377c-4.722,0-14.278.614-14.278.614s8.56-2.534,14.318-2.534S326.092,232,326.092,232,316.038,231.383,311.316,231.383Z" transform="translate(1011.375 1494.37)"/></g><g transform="translate(-1041.687 -1496.65)"><path class="e" d="M341.881,224.966a33.516,33.516,0,0,0-3.776-15.484l-.632-1.2-52.811.1-.623,1.206a33.48,33.48,0,0,0-3.726,15.377c0,16.614,9.327,28.663,24.48,31.874v25.507c0,2.336-2.664,3.583-6.726,5.22-3.65,1.471-7.794,3.134-7.794,7.13v2.269l41.2-.426v-2.22c0-3.789-4.031-5.3-7.592-6.632-4.134-1.552-6.847-2.744-6.847-5.112,0-6.081-.018-20.448-.027-25.515C332.845,253.257,341.881,241.652,341.881,224.966Zm-27.556,28.089-1.812.354v1.847s.031,19.874.031,27.318c0,5.65,5.641,7.767,9.758,9.309l.686.256-24.883.26c.556-.242,1.117-.466,1.632-.673,4.027-1.623,9.538-3.843,9.538-9.381V253.064l-1.888-.3c-14.143-2.247-22.592-12.641-22.592-27.8a29.15,29.15,0,0,1,2.628-12.1l47.3-.094a29.046,29.046,0,0,1,2.672,12.2C337.4,240.154,329.2,250.132,314.325,253.055Zm-2.969-27.049s-4.1-1.9-5.251-1.726-13.345,7.789-13.345,7.789,10.834,7.273,18.767,7.354,18.538-7.354,18.538-7.354-12.269-7.583-13.587-7.789S311.356,226.006,311.356,226.006Zm-.04,5.377c-4.722,0-14.278.614-14.278.614s8.56-2.534,14.318-2.534S326.092,232,326.092,232,316.038,231.383,311.316,231.383Z" transform="translate(1011.375 1494.37)"/></g><g transform="translate(-916.687 -1496.65)"><path class="e" d="M341.881,224.966a33.516,33.516,0,0,0-3.776-15.484l-.632-1.2-52.811.1-.623,1.206a33.48,33.48,0,0,0-3.726,15.377c0,16.614,9.327,28.663,24.48,31.874v25.507c0,2.336-2.664,3.583-6.726,5.22-3.65,1.471-7.794,3.134-7.794,7.13v2.269l41.2-.426v-2.22c0-3.789-4.031-5.3-7.592-6.632-4.134-1.552-6.847-2.744-6.847-5.112,0-6.081-.018-20.448-.027-25.515C332.845,253.257,341.881,241.652,341.881,224.966Zm-27.556,28.089-1.812.354v1.847s.031,19.874.031,27.318c0,5.65,5.641,7.767,9.758,9.309l.686.256-24.883.26c.556-.242,1.117-.466,1.632-.673,4.027-1.623,9.538-3.843,9.538-9.381V253.064l-1.888-.3c-14.143-2.247-22.592-12.641-22.592-27.8a29.15,29.15,0,0,1,2.628-12.1l47.3-.094a29.046,29.046,0,0,1,2.672,12.2C337.4,240.154,329.2,250.132,314.325,253.055Zm-2.969-27.049s-4.1-1.9-5.251-1.726-13.345,7.789-13.345,7.789,10.834,7.273,18.767,7.354,18.538-7.354,18.538-7.354-12.269-7.583-13.587-7.789S311.356,226.006,311.356,226.006Zm-.04,5.377c-4.722,0-14.278.614-14.278.614s8.56-2.534,14.318-2.534S326.092,232,326.092,232,316.038,231.383,311.316,231.383Z" transform="translate(1011.375 1494.37)"/></g><g transform="translate(-791.687 -1496.65)"><path class="e" d="M341.881,224.966a33.516,33.516,0,0,0-3.776-15.484l-.632-1.2-52.811.1-.623,1.206a33.48,33.48,0,0,0-3.726,15.377c0,16.614,9.327,28.663,24.48,31.874v25.507c0,2.336-2.664,3.583-6.726,5.22-3.65,1.471-7.794,3.134-7.794,7.13v2.269l41.2-.426v-2.22c0-3.789-4.031-5.3-7.592-6.632-4.134-1.552-6.847-2.744-6.847-5.112,0-6.081-.018-20.448-.027-25.515C332.845,253.257,341.881,241.652,341.881,224.966Zm-27.556,28.089-1.812.354v1.847s.031,19.874.031,27.318c0,5.65,5.641,7.767,9.758,9.309l.686.256-24.883.26c.556-.242,1.117-.466,1.632-.673,4.027-1.623,9.538-3.843,9.538-9.381V253.064l-1.888-.3c-14.143-2.247-22.592-12.641-22.592-27.8a29.15,29.15,0,0,1,2.628-12.1l47.3-.094a29.046,29.046,0,0,1,2.672,12.2C337.4,240.154,329.2,250.132,314.325,253.055Zm-2.969-27.049s-4.1-1.9-5.251-1.726-13.345,7.789-13.345,7.789,10.834,7.273,18.767,7.354,18.538-7.354,18.538-7.354-12.269-7.583-13.587-7.789S311.356,226.006,311.356,226.006Zm-.04,5.377c-4.722,0-14.278.614-14.278.614s8.56-2.534,14.318-2.534S326.092,232,326.092,232,316.038,231.383,311.316,231.383Z" transform="translate(1011.375 1494.37)"/></g><g transform="translate(-1291.687 -1393.65)"><path class="e" d="M341.881,224.966a33.516,33.516,0,0,0-3.776-15.484l-.632-1.2-52.811.1-.623,1.206a33.48,33.48,0,0,0-3.726,15.377c0,16.614,9.327,28.663,24.48,31.874v25.507c0,2.336-2.664,3.583-6.726,5.22-3.65,1.471-7.794,3.134-7.794,7.13v2.269l41.2-.426v-2.22c0-3.789-4.031-5.3-7.592-6.632-4.134-1.552-6.847-2.744-6.847-5.112,0-6.081-.018-20.448-.027-25.515C332.845,253.257,341.881,241.652,341.881,224.966Zm-27.556,28.089-1.812.354v1.847s.031,19.874.031,27.318c0,5.65,5.641,7.767,9.758,9.309l.686.256-24.883.26c.556-.242,1.117-.466,1.632-.673,4.027-1.623,9.538-3.843,9.538-9.381V253.064l-1.888-.3c-14.143-2.247-22.592-12.641-22.592-27.8a29.15,29.15,0,0,1,2.628-12.1l47.3-.094a29.046,29.046,0,0,1,2.672,12.2C337.4,240.154,329.2,250.132,314.325,253.055Zm-2.969-27.049s-4.1-1.9-5.251-1.726-13.345,7.789-13.345,7.789,10.834,7.273,18.767,7.354,18.538-7.354,18.538-7.354-12.269-7.583-13.587-7.789S311.356,226.006,311.356,226.006Zm-.04,5.377c-4.722,0-14.278.614-14.278.614s8.56-2.534,14.318-2.534S326.092,232,326.092,232,316.038,231.383,311.316,231.383Z" transform="translate(1011.375 1494.37)"/></g><g transform="translate(-1166.687 -1393.65)"><path class="e" d="M341.881,224.966a33.516,33.516,0,0,0-3.776-15.484l-.632-1.2-52.811.1-.623,1.206a33.48,33.48,0,0,0-3.726,15.377c0,16.614,9.327,28.663,24.48,31.874v25.507c0,2.336-2.664,3.583-6.726,5.22-3.65,1.471-7.794,3.134-7.794,7.13v2.269l41.2-.426v-2.22c0-3.789-4.031-5.3-7.592-6.632-4.134-1.552-6.847-2.744-6.847-5.112,0-6.081-.018-20.448-.027-25.515C332.845,253.257,341.881,241.652,341.881,224.966Zm-27.556,28.089-1.812.354v1.847s.031,19.874.031,27.318c0,5.65,5.641,7.767,9.758,9.309l.686.256-24.883.26c.556-.242,1.117-.466,1.632-.673,4.027-1.623,9.538-3.843,9.538-9.381V253.064l-1.888-.3c-14.143-2.247-22.592-12.641-22.592-27.8a29.15,29.15,0,0,1,2.628-12.1l47.3-.094a29.046,29.046,0,0,1,2.672,12.2C337.4,240.154,329.2,250.132,314.325,253.055Zm-2.969-27.049s-4.1-1.9-5.251-1.726-13.345,7.789-13.345,7.789,10.834,7.273,18.767,7.354,18.538-7.354,18.538-7.354-12.269-7.583-13.587-7.789S311.356,226.006,311.356,226.006Zm-.04,5.377c-4.722,0-14.278.614-14.278.614s8.56-2.534,14.318-2.534S326.092,232,326.092,232,316.038,231.383,311.316,231.383Z" transform="translate(1011.375 1494.37)"/></g><g transform="translate(-1041.687 -1393.65)"><path class="e" d="M341.881,224.966a33.516,33.516,0,0,0-3.776-15.484l-.632-1.2-52.811.1-.623,1.206a33.48,33.48,0,0,0-3.726,15.377c0,16.614,9.327,28.663,24.48,31.874v25.507c0,2.336-2.664,3.583-6.726,5.22-3.65,1.471-7.794,3.134-7.794,7.13v2.269l41.2-.426v-2.22c0-3.789-4.031-5.3-7.592-6.632-4.134-1.552-6.847-2.744-6.847-5.112,0-6.081-.018-20.448-.027-25.515C332.845,253.257,341.881,241.652,341.881,224.966Zm-27.556,28.089-1.812.354v1.847s.031,19.874.031,27.318c0,5.65,5.641,7.767,9.758,9.309l.686.256-24.883.26c.556-.242,1.117-.466,1.632-.673,4.027-1.623,9.538-3.843,9.538-9.381V253.064l-1.888-.3c-14.143-2.247-22.592-12.641-22.592-27.8a29.15,29.15,0,0,1,2.628-12.1l47.3-.094a29.046,29.046,0,0,1,2.672,12.2C337.4,240.154,329.2,250.132,314.325,253.055Zm-2.969-27.049s-4.1-1.9-5.251-1.726-13.345,7.789-13.345,7.789,10.834,7.273,18.767,7.354,18.538-7.354,18.538-7.354-12.269-7.583-13.587-7.789S311.356,226.006,311.356,226.006Zm-.04,5.377c-4.722,0-14.278.614-14.278.614s8.56-2.534,14.318-2.534S326.092,232,326.092,232,316.038,231.383,311.316,231.383Z" transform="translate(1011.375 1494.37)"/></g><g transform="translate(-916.687 -1393.65)"><path class="e" d="M341.881,224.966a33.516,33.516,0,0,0-3.776-15.484l-.632-1.2-52.811.1-.623,1.206a33.48,33.48,0,0,0-3.726,15.377c0,16.614,9.327,28.663,24.48,31.874v25.507c0,2.336-2.664,3.583-6.726,5.22-3.65,1.471-7.794,3.134-7.794,7.13v2.269l41.2-.426v-2.22c0-3.789-4.031-5.3-7.592-6.632-4.134-1.552-6.847-2.744-6.847-5.112,0-6.081-.018-20.448-.027-25.515C332.845,253.257,341.881,241.652,341.881,224.966Zm-27.556,28.089-1.812.354v1.847s.031,19.874.031,27.318c0,5.65,5.641,7.767,9.758,9.309l.686.256-24.883.26c.556-.242,1.117-.466,1.632-.673,4.027-1.623,9.538-3.843,9.538-9.381V253.064l-1.888-.3c-14.143-2.247-22.592-12.641-22.592-27.8a29.15,29.15,0,0,1,2.628-12.1l47.3-.094a29.046,29.046,0,0,1,2.672,12.2C337.4,240.154,329.2,250.132,314.325,253.055Zm-2.969-27.049s-4.1-1.9-5.251-1.726-13.345,7.789-13.345,7.789,10.834,7.273,18.767,7.354,18.538-7.354,18.538-7.354-12.269-7.583-13.587-7.789S311.356,226.006,311.356,226.006Zm-.04,5.377c-4.722,0-14.278.614-14.278.614s8.56-2.534,14.318-2.534S326.092,232,326.092,232,316.038,231.383,311.316,231.383Z" transform="translate(1011.375 1494.37)"/></g><g transform="translate(-791.687 -1393.65)"><path class="e" d="M341.881,224.966a33.516,33.516,0,0,0-3.776-15.484l-.632-1.2-52.811.1-.623,1.206a33.48,33.48,0,0,0-3.726,15.377c0,16.614,9.327,28.663,24.48,31.874v25.507c0,2.336-2.664,3.583-6.726,5.22-3.65,1.471-7.794,3.134-7.794,7.13v2.269l41.2-.426v-2.22c0-3.789-4.031-5.3-7.592-6.632-4.134-1.552-6.847-2.744-6.847-5.112,0-6.081-.018-20.448-.027-25.515C332.845,253.257,341.881,241.652,341.881,224.966Zm-27.556,28.089-1.812.354v1.847s.031,19.874.031,27.318c0,5.65,5.641,7.767,9.758,9.309l.686.256-24.883.26c.556-.242,1.117-.466,1.632-.673,4.027-1.623,9.538-3.843,9.538-9.381V253.064l-1.888-.3c-14.143-2.247-22.592-12.641-22.592-27.8a29.15,29.15,0,0,1,2.628-12.1l47.3-.094a29.046,29.046,0,0,1,2.672,12.2C337.4,240.154,329.2,250.132,314.325,253.055Zm-2.969-27.049s-4.1-1.9-5.251-1.726-13.345,7.789-13.345,7.789,10.834,7.273,18.767,7.354,18.538-7.354,18.538-7.354-12.269-7.583-13.587-7.789S311.356,226.006,311.356,226.006Zm-.04,5.377c-4.722,0-14.278.614-14.278.614s8.56-2.534,14.318-2.534S326.092,232,326.092,232,316.038,231.383,311.316,231.383Z" transform="translate(1011.375 1494.37)"/></g><g transform="translate(-1291.687 -1290.65)"><path class="e" d="M341.881,224.966a33.516,33.516,0,0,0-3.776-15.484l-.632-1.2-52.811.1-.623,1.206a33.48,33.48,0,0,0-3.726,15.377c0,16.614,9.327,28.663,24.48,31.874v25.507c0,2.336-2.664,3.583-6.726,5.22-3.65,1.471-7.794,3.134-7.794,7.13v2.269l41.2-.426v-2.22c0-3.789-4.031-5.3-7.592-6.632-4.134-1.552-6.847-2.744-6.847-5.112,0-6.081-.018-20.448-.027-25.515C332.845,253.257,341.881,241.652,341.881,224.966Zm-27.556,28.089-1.812.354v1.847s.031,19.874.031,27.318c0,5.65,5.641,7.767,9.758,9.309l.686.256-24.883.26c.556-.242,1.117-.466,1.632-.673,4.027-1.623,9.538-3.843,9.538-9.381V253.064l-1.888-.3c-14.143-2.247-22.592-12.641-22.592-27.8a29.15,29.15,0,0,1,2.628-12.1l47.3-.094a29.046,29.046,0,0,1,2.672,12.2C337.4,240.154,329.2,250.132,314.325,253.055Zm-2.969-27.049s-4.1-1.9-5.251-1.726-13.345,7.789-13.345,7.789,10.834,7.273,18.767,7.354,18.538-7.354,18.538-7.354-12.269-7.583-13.587-7.789S311.356,226.006,311.356,226.006Zm-.04,5.377c-4.722,0-14.278.614-14.278.614s8.56-2.534,14.318-2.534S326.092,232,326.092,232,316.038,231.383,311.316,231.383Z" transform="translate(1011.375 1494.37)"/></g><g transform="translate(-1166.687 -1290.65)"><path class="e" d="M341.881,224.966a33.516,33.516,0,0,0-3.776-15.484l-.632-1.2-52.811.1-.623,1.206a33.48,33.48,0,0,0-3.726,15.377c0,16.614,9.327,28.663,24.48,31.874v25.507c0,2.336-2.664,3.583-6.726,5.22-3.65,1.471-7.794,3.134-7.794,7.13v2.269l41.2-.426v-2.22c0-3.789-4.031-5.3-7.592-6.632-4.134-1.552-6.847-2.744-6.847-5.112,0-6.081-.018-20.448-.027-25.515C332.845,253.257,341.881,241.652,341.881,224.966Zm-27.556,28.089-1.812.354v1.847s.031,19.874.031,27.318c0,5.65,5.641,7.767,9.758,9.309l.686.256-24.883.26c.556-.242,1.117-.466,1.632-.673,4.027-1.623,9.538-3.843,9.538-9.381V253.064l-1.888-.3c-14.143-2.247-22.592-12.641-22.592-27.8a29.15,29.15,0,0,1,2.628-12.1l47.3-.094a29.046,29.046,0,0,1,2.672,12.2C337.4,240.154,329.2,250.132,314.325,253.055Zm-2.969-27.049s-4.1-1.9-5.251-1.726-13.345,7.789-13.345,7.789,10.834,7.273,18.767,7.354,18.538-7.354,18.538-7.354-12.269-7.583-13.587-7.789S311.356,226.006,311.356,226.006Zm-.04,5.377c-4.722,0-14.278.614-14.278.614s8.56-2.534,14.318-2.534S326.092,232,326.092,232,316.038,231.383,311.316,231.383Z" transform="translate(1011.375 1494.37)"/></g><g transform="translate(-1041.687 -1290.65)"><path class="e" d="M341.881,224.966a33.516,33.516,0,0,0-3.776-15.484l-.632-1.2-52.811.1-.623,1.206a33.48,33.48,0,0,0-3.726,15.377c0,16.614,9.327,28.663,24.48,31.874v25.507c0,2.336-2.664,3.583-6.726,5.22-3.65,1.471-7.794,3.134-7.794,7.13v2.269l41.2-.426v-2.22c0-3.789-4.031-5.3-7.592-6.632-4.134-1.552-6.847-2.744-6.847-5.112,0-6.081-.018-20.448-.027-25.515C332.845,253.257,341.881,241.652,341.881,224.966Zm-27.556,28.089-1.812.354v1.847s.031,19.874.031,27.318c0,5.65,5.641,7.767,9.758,9.309l.686.256-24.883.26c.556-.242,1.117-.466,1.632-.673,4.027-1.623,9.538-3.843,9.538-9.381V253.064l-1.888-.3c-14.143-2.247-22.592-12.641-22.592-27.8a29.15,29.15,0,0,1,2.628-12.1l47.3-.094a29.046,29.046,0,0,1,2.672,12.2C337.4,240.154,329.2,250.132,314.325,253.055Zm-2.969-27.049s-4.1-1.9-5.251-1.726-13.345,7.789-13.345,7.789,10.834,7.273,18.767,7.354,18.538-7.354,18.538-7.354-12.269-7.583-13.587-7.789S311.356,226.006,311.356,226.006Zm-.04,5.377c-4.722,0-14.278.614-14.278.614s8.56-2.534,14.318-2.534S326.092,232,326.092,232,316.038,231.383,311.316,231.383Z" transform="translate(1011.375 1494.37)"/></g><g transform="translate(-916.687 -1290.65)"><path class="e" d="M341.881,224.966a33.516,33.516,0,0,0-3.776-15.484l-.632-1.2-52.811.1-.623,1.206a33.48,33.48,0,0,0-3.726,15.377c0,16.614,9.327,28.663,24.48,31.874v25.507c0,2.336-2.664,3.583-6.726,5.22-3.65,1.471-7.794,3.134-7.794,7.13v2.269l41.2-.426v-2.22c0-3.789-4.031-5.3-7.592-6.632-4.134-1.552-6.847-2.744-6.847-5.112,0-6.081-.018-20.448-.027-25.515C332.845,253.257,341.881,241.652,341.881,224.966Zm-27.556,28.089-1.812.354v1.847s.031,19.874.031,27.318c0,5.65,5.641,7.767,9.758,9.309l.686.256-24.883.26c.556-.242,1.117-.466,1.632-.673,4.027-1.623,9.538-3.843,9.538-9.381V253.064l-1.888-.3c-14.143-2.247-22.592-12.641-22.592-27.8a29.15,29.15,0,0,1,2.628-12.1l47.3-.094a29.046,29.046,0,0,1,2.672,12.2C337.4,240.154,329.2,250.132,314.325,253.055Zm-2.969-27.049s-4.1-1.9-5.251-1.726-13.345,7.789-13.345,7.789,10.834,7.273,18.767,7.354,18.538-7.354,18.538-7.354-12.269-7.583-13.587-7.789S311.356,226.006,311.356,226.006Zm-.04,5.377c-4.722,0-14.278.614-14.278.614s8.56-2.534,14.318-2.534S326.092,232,326.092,232,316.038,231.383,311.316,231.383Z" transform="translate(1011.375 1494.37)"/></g><g transform="translate(-791.687 -1290.65)"><path class="e" d="M341.881,224.966a33.516,33.516,0,0,0-3.776-15.484l-.632-1.2-52.811.1-.623,1.206a33.48,33.48,0,0,0-3.726,15.377c0,16.614,9.327,28.663,24.48,31.874v25.507c0,2.336-2.664,3.583-6.726,5.22-3.65,1.471-7.794,3.134-7.794,7.13v2.269l41.2-.426v-2.22c0-3.789-4.031-5.3-7.592-6.632-4.134-1.552-6.847-2.744-6.847-5.112,0-6.081-.018-20.448-.027-25.515C332.845,253.257,341.881,241.652,341.881,224.966Zm-27.556,28.089-1.812.354v1.847s.031,19.874.031,27.318c0,5.65,5.641,7.767,9.758,9.309l.686.256-24.883.26c.556-.242,1.117-.466,1.632-.673,4.027-1.623,9.538-3.843,9.538-9.381V253.064l-1.888-.3c-14.143-2.247-22.592-12.641-22.592-27.8a29.15,29.15,0,0,1,2.628-12.1l47.3-.094a29.046,29.046,0,0,1,2.672,12.2C337.4,240.154,329.2,250.132,314.325,253.055Zm-2.969-27.049s-4.1-1.9-5.251-1.726-13.345,7.789-13.345,7.789,10.834,7.273,18.767,7.354,18.538-7.354,18.538-7.354-12.269-7.583-13.587-7.789S311.356,226.006,311.356,226.006Zm-.04,5.377c-4.722,0-14.278.614-14.278.614s8.56-2.534,14.318-2.534S326.092,232,326.092,232,316.038,231.383,311.316,231.383Z" transform="translate(1011.375 1494.37)"/></g><g transform="translate(-1291.687 -1187.65)"><path class="e" d="M341.881,224.966a33.516,33.516,0,0,0-3.776-15.484l-.632-1.2-52.811.1-.623,1.206a33.48,33.48,0,0,0-3.726,15.377c0,16.614,9.327,28.663,24.48,31.874v25.507c0,2.336-2.664,3.583-6.726,5.22-3.65,1.471-7.794,3.134-7.794,7.13v2.269l41.2-.426v-2.22c0-3.789-4.031-5.3-7.592-6.632-4.134-1.552-6.847-2.744-6.847-5.112,0-6.081-.018-20.448-.027-25.515C332.845,253.257,341.881,241.652,341.881,224.966Zm-27.556,28.089-1.812.354v1.847s.031,19.874.031,27.318c0,5.65,5.641,7.767,9.758,9.309l.686.256-24.883.26c.556-.242,1.117-.466,1.632-.673,4.027-1.623,9.538-3.843,9.538-9.381V253.064l-1.888-.3c-14.143-2.247-22.592-12.641-22.592-27.8a29.15,29.15,0,0,1,2.628-12.1l47.3-.094a29.046,29.046,0,0,1,2.672,12.2C337.4,240.154,329.2,250.132,314.325,253.055Zm-2.969-27.049s-4.1-1.9-5.251-1.726-13.345,7.789-13.345,7.789,10.834,7.273,18.767,7.354,18.538-7.354,18.538-7.354-12.269-7.583-13.587-7.789S311.356,226.006,311.356,226.006Zm-.04,5.377c-4.722,0-14.278.614-14.278.614s8.56-2.534,14.318-2.534S326.092,232,326.092,232,316.038,231.383,311.316,231.383Z" transform="translate(1011.375 1494.37)"/></g><g transform="translate(-1166.687 -1187.65)"><path class="e" d="M341.881,224.966a33.516,33.516,0,0,0-3.776-15.484l-.632-1.2-52.811.1-.623,1.206a33.48,33.48,0,0,0-3.726,15.377c0,16.614,9.327,28.663,24.48,31.874v25.507c0,2.336-2.664,3.583-6.726,5.22-3.65,1.471-7.794,3.134-7.794,7.13v2.269l41.2-.426v-2.22c0-3.789-4.031-5.3-7.592-6.632-4.134-1.552-6.847-2.744-6.847-5.112,0-6.081-.018-20.448-.027-25.515C332.845,253.257,341.881,241.652,341.881,224.966Zm-27.556,28.089-1.812.354v1.847s.031,19.874.031,27.318c0,5.65,5.641,7.767,9.758,9.309l.686.256-24.883.26c.556-.242,1.117-.466,1.632-.673,4.027-1.623,9.538-3.843,9.538-9.381V253.064l-1.888-.3c-14.143-2.247-22.592-12.641-22.592-27.8a29.15,29.15,0,0,1,2.628-12.1l47.3-.094a29.046,29.046,0,0,1,2.672,12.2C337.4,240.154,329.2,250.132,314.325,253.055Zm-2.969-27.049s-4.1-1.9-5.251-1.726-13.345,7.789-13.345,7.789,10.834,7.273,18.767,7.354,18.538-7.354,18.538-7.354-12.269-7.583-13.587-7.789S311.356,226.006,311.356,226.006Zm-.04,5.377c-4.722,0-14.278.614-14.278.614s8.56-2.534,14.318-2.534S326.092,232,326.092,232,316.038,231.383,311.316,231.383Z" transform="translate(1011.375 1494.37)"/></g><g transform="translate(-1041.687 -1187.65)"><path class="e" d="M341.881,224.966a33.516,33.516,0,0,0-3.776-15.484l-.632-1.2-52.811.1-.623,1.206a33.48,33.48,0,0,0-3.726,15.377c0,16.614,9.327,28.663,24.48,31.874v25.507c0,2.336-2.664,3.583-6.726,5.22-3.65,1.471-7.794,3.134-7.794,7.13v2.269l41.2-.426v-2.22c0-3.789-4.031-5.3-7.592-6.632-4.134-1.552-6.847-2.744-6.847-5.112,0-6.081-.018-20.448-.027-25.515C332.845,253.257,341.881,241.652,341.881,224.966Zm-27.556,28.089-1.812.354v1.847s.031,19.874.031,27.318c0,5.65,5.641,7.767,9.758,9.309l.686.256-24.883.26c.556-.242,1.117-.466,1.632-.673,4.027-1.623,9.538-3.843,9.538-9.381V253.064l-1.888-.3c-14.143-2.247-22.592-12.641-22.592-27.8a29.15,29.15,0,0,1,2.628-12.1l47.3-.094a29.046,29.046,0,0,1,2.672,12.2C337.4,240.154,329.2,250.132,314.325,253.055Zm-2.969-27.049s-4.1-1.9-5.251-1.726-13.345,7.789-13.345,7.789,10.834,7.273,18.767,7.354,18.538-7.354,18.538-7.354-12.269-7.583-13.587-7.789S311.356,226.006,311.356,226.006Zm-.04,5.377c-4.722,0-14.278.614-14.278.614s8.56-2.534,14.318-2.534S326.092,232,326.092,232,316.038,231.383,311.316,231.383Z" transform="translate(1011.375 1494.37)"/></g><g transform="translate(-916.687 -1187.65)"><path class="e" d="M341.881,224.966a33.516,33.516,0,0,0-3.776-15.484l-.632-1.2-52.811.1-.623,1.206a33.48,33.48,0,0,0-3.726,15.377c0,16.614,9.327,28.663,24.48,31.874v25.507c0,2.336-2.664,3.583-6.726,5.22-3.65,1.471-7.794,3.134-7.794,7.13v2.269l41.2-.426v-2.22c0-3.789-4.031-5.3-7.592-6.632-4.134-1.552-6.847-2.744-6.847-5.112,0-6.081-.018-20.448-.027-25.515C332.845,253.257,341.881,241.652,341.881,224.966Zm-27.556,28.089-1.812.354v1.847s.031,19.874.031,27.318c0,5.65,5.641,7.767,9.758,9.309l.686.256-24.883.26c.556-.242,1.117-.466,1.632-.673,4.027-1.623,9.538-3.843,9.538-9.381V253.064l-1.888-.3c-14.143-2.247-22.592-12.641-22.592-27.8a29.15,29.15,0,0,1,2.628-12.1l47.3-.094a29.046,29.046,0,0,1,2.672,12.2C337.4,240.154,329.2,250.132,314.325,253.055Zm-2.969-27.049s-4.1-1.9-5.251-1.726-13.345,7.789-13.345,7.789,10.834,7.273,18.767,7.354,18.538-7.354,18.538-7.354-12.269-7.583-13.587-7.789S311.356,226.006,311.356,226.006Zm-.04,5.377c-4.722,0-14.278.614-14.278.614s8.56-2.534,14.318-2.534S326.092,232,326.092,232,316.038,231.383,311.316,231.383Z" transform="translate(1011.375 1494.37)"/></g><g transform="translate(-791.687 -1187.65)"><path class="e" d="M341.881,224.966a33.516,33.516,0,0,0-3.776-15.484l-.632-1.2-52.811.1-.623,1.206a33.48,33.48,0,0,0-3.726,15.377c0,16.614,9.327,28.663,24.48,31.874v25.507c0,2.336-2.664,3.583-6.726,5.22-3.65,1.471-7.794,3.134-7.794,7.13v2.269l41.2-.426v-2.22c0-3.789-4.031-5.3-7.592-6.632-4.134-1.552-6.847-2.744-6.847-5.112,0-6.081-.018-20.448-.027-25.515C332.845,253.257,341.881,241.652,341.881,224.966Zm-27.556,28.089-1.812.354v1.847s.031,19.874.031,27.318c0,5.65,5.641,7.767,9.758,9.309l.686.256-24.883.26c.556-.242,1.117-.466,1.632-.673,4.027-1.623,9.538-3.843,9.538-9.381V253.064l-1.888-.3c-14.143-2.247-22.592-12.641-22.592-27.8a29.15,29.15,0,0,1,2.628-12.1l47.3-.094a29.046,29.046,0,0,1,2.672,12.2C337.4,240.154,329.2,250.132,314.325,253.055Zm-2.969-27.049s-4.1-1.9-5.251-1.726-13.345,7.789-13.345,7.789,10.834,7.273,18.767,7.354,18.538-7.354,18.538-7.354-12.269-7.583-13.587-7.789S311.356,226.006,311.356,226.006Zm-.04,5.377c-4.722,0-14.278.614-14.278.614s8.56-2.534,14.318-2.534S326.092,232,326.092,232,316.038,231.383,311.316,231.383Z" transform="translate(1011.375 1494.37)"/></g><g transform="translate(-1291.687 -1084.65)"><path class="e" d="M341.881,224.966a33.516,33.516,0,0,0-3.776-15.484l-.632-1.2-52.811.1-.623,1.206a33.48,33.48,0,0,0-3.726,15.377c0,16.614,9.327,28.663,24.48,31.874v25.507c0,2.336-2.664,3.583-6.726,5.22-3.65,1.471-7.794,3.134-7.794,7.13v2.269l41.2-.426v-2.22c0-3.789-4.031-5.3-7.592-6.632-4.134-1.552-6.847-2.744-6.847-5.112,0-6.081-.018-20.448-.027-25.515C332.845,253.257,341.881,241.652,341.881,224.966Zm-27.556,28.089-1.812.354v1.847s.031,19.874.031,27.318c0,5.65,5.641,7.767,9.758,9.309l.686.256-24.883.26c.556-.242,1.117-.466,1.632-.673,4.027-1.623,9.538-3.843,9.538-9.381V253.064l-1.888-.3c-14.143-2.247-22.592-12.641-22.592-27.8a29.15,29.15,0,0,1,2.628-12.1l47.3-.094a29.046,29.046,0,0,1,2.672,12.2C337.4,240.154,329.2,250.132,314.325,253.055Zm-2.969-27.049s-4.1-1.9-5.251-1.726-13.345,7.789-13.345,7.789,10.834,7.273,18.767,7.354,18.538-7.354,18.538-7.354-12.269-7.583-13.587-7.789S311.356,226.006,311.356,226.006Zm-.04,5.377c-4.722,0-14.278.614-14.278.614s8.56-2.534,14.318-2.534S326.092,232,326.092,232,316.038,231.383,311.316,231.383Z" transform="translate(1011.375 1494.37)"/></g><g transform="translate(-1166.687 -1084.65)"><path class="e" d="M341.881,224.966a33.516,33.516,0,0,0-3.776-15.484l-.632-1.2-52.811.1-.623,1.206a33.48,33.48,0,0,0-3.726,15.377c0,16.614,9.327,28.663,24.48,31.874v25.507c0,2.336-2.664,3.583-6.726,5.22-3.65,1.471-7.794,3.134-7.794,7.13v2.269l41.2-.426v-2.22c0-3.789-4.031-5.3-7.592-6.632-4.134-1.552-6.847-2.744-6.847-5.112,0-6.081-.018-20.448-.027-25.515C332.845,253.257,341.881,241.652,341.881,224.966Zm-27.556,28.089-1.812.354v1.847s.031,19.874.031,27.318c0,5.65,5.641,7.767,9.758,9.309l.686.256-24.883.26c.556-.242,1.117-.466,1.632-.673,4.027-1.623,9.538-3.843,9.538-9.381V253.064l-1.888-.3c-14.143-2.247-22.592-12.641-22.592-27.8a29.15,29.15,0,0,1,2.628-12.1l47.3-.094a29.046,29.046,0,0,1,2.672,12.2C337.4,240.154,329.2,250.132,314.325,253.055Zm-2.969-27.049s-4.1-1.9-5.251-1.726-13.345,7.789-13.345,7.789,10.834,7.273,18.767,7.354,18.538-7.354,18.538-7.354-12.269-7.583-13.587-7.789S311.356,226.006,311.356,226.006Zm-.04,5.377c-4.722,0-14.278.614-14.278.614s8.56-2.534,14.318-2.534S326.092,232,326.092,232,316.038,231.383,311.316,231.383Z" transform="translate(1011.375 1494.37)"/></g><g transform="translate(-1041.687 -1084.65)"><path class="e" d="M341.881,224.966a33.516,33.516,0,0,0-3.776-15.484l-.632-1.2-52.811.1-.623,1.206a33.48,33.48,0,0,0-3.726,15.377c0,16.614,9.327,28.663,24.48,31.874v25.507c0,2.336-2.664,3.583-6.726,5.22-3.65,1.471-7.794,3.134-7.794,7.13v2.269l41.2-.426v-2.22c0-3.789-4.031-5.3-7.592-6.632-4.134-1.552-6.847-2.744-6.847-5.112,0-6.081-.018-20.448-.027-25.515C332.845,253.257,341.881,241.652,341.881,224.966Zm-27.556,28.089-1.812.354v1.847s.031,19.874.031,27.318c0,5.65,5.641,7.767,9.758,9.309l.686.256-24.883.26c.556-.242,1.117-.466,1.632-.673,4.027-1.623,9.538-3.843,9.538-9.381V253.064l-1.888-.3c-14.143-2.247-22.592-12.641-22.592-27.8a29.15,29.15,0,0,1,2.628-12.1l47.3-.094a29.046,29.046,0,0,1,2.672,12.2C337.4,240.154,329.2,250.132,314.325,253.055Zm-2.969-27.049s-4.1-1.9-5.251-1.726-13.345,7.789-13.345,7.789,10.834,7.273,18.767,7.354,18.538-7.354,18.538-7.354-12.269-7.583-13.587-7.789S311.356,226.006,311.356,226.006Zm-.04,5.377c-4.722,0-14.278.614-14.278.614s8.56-2.534,14.318-2.534S326.092,232,326.092,232,316.038,231.383,311.316,231.383Z" transform="translate(1011.375 1494.37)"/></g><g transform="translate(-916.687 -1084.65)"><path class="e" d="M341.881,224.966a33.516,33.516,0,0,0-3.776-15.484l-.632-1.2-52.811.1-.623,1.206a33.48,33.48,0,0,0-3.726,15.377c0,16.614,9.327,28.663,24.48,31.874v25.507c0,2.336-2.664,3.583-6.726,5.22-3.65,1.471-7.794,3.134-7.794,7.13v2.269l41.2-.426v-2.22c0-3.789-4.031-5.3-7.592-6.632-4.134-1.552-6.847-2.744-6.847-5.112,0-6.081-.018-20.448-.027-25.515C332.845,253.257,341.881,241.652,341.881,224.966Zm-27.556,28.089-1.812.354v1.847s.031,19.874.031,27.318c0,5.65,5.641,7.767,9.758,9.309l.686.256-24.883.26c.556-.242,1.117-.466,1.632-.673,4.027-1.623,9.538-3.843,9.538-9.381V253.064l-1.888-.3c-14.143-2.247-22.592-12.641-22.592-27.8a29.15,29.15,0,0,1,2.628-12.1l47.3-.094a29.046,29.046,0,0,1,2.672,12.2C337.4,240.154,329.2,250.132,314.325,253.055Zm-2.969-27.049s-4.1-1.9-5.251-1.726-13.345,7.789-13.345,7.789,10.834,7.273,18.767,7.354,18.538-7.354,18.538-7.354-12.269-7.583-13.587-7.789S311.356,226.006,311.356,226.006Zm-.04,5.377c-4.722,0-14.278.614-14.278.614s8.56-2.534,14.318-2.534S326.092,232,326.092,232,316.038,231.383,311.316,231.383Z" transform="translate(1011.375 1494.37)"/></g><g transform="translate(-791.687 -1084.65)"><path class="e" d="M341.881,224.966a33.516,33.516,0,0,0-3.776-15.484l-.632-1.2-52.811.1-.623,1.206a33.48,33.48,0,0,0-3.726,15.377c0,16.614,9.327,28.663,24.48,31.874v25.507c0,2.336-2.664,3.583-6.726,5.22-3.65,1.471-7.794,3.134-7.794,7.13v2.269l41.2-.426v-2.22c0-3.789-4.031-5.3-7.592-6.632-4.134-1.552-6.847-2.744-6.847-5.112,0-6.081-.018-20.448-.027-25.515C332.845,253.257,341.881,241.652,341.881,224.966Zm-27.556,28.089-1.812.354v1.847s.031,19.874.031,27.318c0,5.65,5.641,7.767,9.758,9.309l.686.256-24.883.26c.556-.242,1.117-.466,1.632-.673,4.027-1.623,9.538-3.843,9.538-9.381V253.064l-1.888-.3c-14.143-2.247-22.592-12.641-22.592-27.8a29.15,29.15,0,0,1,2.628-12.1l47.3-.094a29.046,29.046,0,0,1,2.672,12.2C337.4,240.154,329.2,250.132,314.325,253.055Zm-2.969-27.049s-4.1-1.9-5.251-1.726-13.345,7.789-13.345,7.789,10.834,7.273,18.767,7.354,18.538-7.354,18.538-7.354-12.269-7.583-13.587-7.789S311.356,226.006,311.356,226.006Zm-.04,5.377c-4.722,0-14.278.614-14.278.614s8.56-2.534,14.318-2.534S326.092,232,326.092,232,316.038,231.383,311.316,231.383Z" transform="translate(1011.375 1494.37)"/></g><g transform="translate(-1291.687 -981.65)"><path class="e" d="M341.881,224.966a33.516,33.516,0,0,0-3.776-15.484l-.632-1.2-52.811.1-.623,1.206a33.48,33.48,0,0,0-3.726,15.377c0,16.614,9.327,28.663,24.48,31.874v25.507c0,2.336-2.664,3.583-6.726,5.22-3.65,1.471-7.794,3.134-7.794,7.13v2.269l41.2-.426v-2.22c0-3.789-4.031-5.3-7.592-6.632-4.134-1.552-6.847-2.744-6.847-5.112,0-6.081-.018-20.448-.027-25.515C332.845,253.257,341.881,241.652,341.881,224.966Zm-27.556,28.089-1.812.354v1.847s.031,19.874.031,27.318c0,5.65,5.641,7.767,9.758,9.309l.686.256-24.883.26c.556-.242,1.117-.466,1.632-.673,4.027-1.623,9.538-3.843,9.538-9.381V253.064l-1.888-.3c-14.143-2.247-22.592-12.641-22.592-27.8a29.15,29.15,0,0,1,2.628-12.1l47.3-.094a29.046,29.046,0,0,1,2.672,12.2C337.4,240.154,329.2,250.132,314.325,253.055Zm-2.969-27.049s-4.1-1.9-5.251-1.726-13.345,7.789-13.345,7.789,10.834,7.273,18.767,7.354,18.538-7.354,18.538-7.354-12.269-7.583-13.587-7.789S311.356,226.006,311.356,226.006Zm-.04,5.377c-4.722,0-14.278.614-14.278.614s8.56-2.534,14.318-2.534S326.092,232,326.092,232,316.038,231.383,311.316,231.383Z" transform="translate(1011.375 1494.37)"/></g><g transform="translate(-1166.687 -981.65)"><path class="e" d="M341.881,224.966a33.516,33.516,0,0,0-3.776-15.484l-.632-1.2-52.811.1-.623,1.206a33.48,33.48,0,0,0-3.726,15.377c0,16.614,9.327,28.663,24.48,31.874v25.507c0,2.336-2.664,3.583-6.726,5.22-3.65,1.471-7.794,3.134-7.794,7.13v2.269l41.2-.426v-2.22c0-3.789-4.031-5.3-7.592-6.632-4.134-1.552-6.847-2.744-6.847-5.112,0-6.081-.018-20.448-.027-25.515C332.845,253.257,341.881,241.652,341.881,224.966Zm-27.556,28.089-1.812.354v1.847s.031,19.874.031,27.318c0,5.65,5.641,7.767,9.758,9.309l.686.256-24.883.26c.556-.242,1.117-.466,1.632-.673,4.027-1.623,9.538-3.843,9.538-9.381V253.064l-1.888-.3c-14.143-2.247-22.592-12.641-22.592-27.8a29.15,29.15,0,0,1,2.628-12.1l47.3-.094a29.046,29.046,0,0,1,2.672,12.2C337.4,240.154,329.2,250.132,314.325,253.055Zm-2.969-27.049s-4.1-1.9-5.251-1.726-13.345,7.789-13.345,7.789,10.834,7.273,18.767,7.354,18.538-7.354,18.538-7.354-12.269-7.583-13.587-7.789S311.356,226.006,311.356,226.006Zm-.04,5.377c-4.722,0-14.278.614-14.278.614s8.56-2.534,14.318-2.534S326.092,232,326.092,232,316.038,231.383,311.316,231.383Z" transform="translate(1011.375 1494.37)"/></g><g transform="translate(-1041.687 -981.65)"><path class="e" d="M341.881,224.966a33.516,33.516,0,0,0-3.776-15.484l-.632-1.2-52.811.1-.623,1.206a33.48,33.48,0,0,0-3.726,15.377c0,16.614,9.327,28.663,24.48,31.874v25.507c0,2.336-2.664,3.583-6.726,5.22-3.65,1.471-7.794,3.134-7.794,7.13v2.269l41.2-.426v-2.22c0-3.789-4.031-5.3-7.592-6.632-4.134-1.552-6.847-2.744-6.847-5.112,0-6.081-.018-20.448-.027-25.515C332.845,253.257,341.881,241.652,341.881,224.966Zm-27.556,28.089-1.812.354v1.847s.031,19.874.031,27.318c0,5.65,5.641,7.767,9.758,9.309l.686.256-24.883.26c.556-.242,1.117-.466,1.632-.673,4.027-1.623,9.538-3.843,9.538-9.381V253.064l-1.888-.3c-14.143-2.247-22.592-12.641-22.592-27.8a29.15,29.15,0,0,1,2.628-12.1l47.3-.094a29.046,29.046,0,0,1,2.672,12.2C337.4,240.154,329.2,250.132,314.325,253.055Zm-2.969-27.049s-4.1-1.9-5.251-1.726-13.345,7.789-13.345,7.789,10.834,7.273,18.767,7.354,18.538-7.354,18.538-7.354-12.269-7.583-13.587-7.789S311.356,226.006,311.356,226.006Zm-.04,5.377c-4.722,0-14.278.614-14.278.614s8.56-2.534,14.318-2.534S326.092,232,326.092,232,316.038,231.383,311.316,231.383Z" transform="translate(1011.375 1494.37)"/></g><g transform="translate(-916.687 -981.65)"><path class="e" d="M341.881,224.966a33.516,33.516,0,0,0-3.776-15.484l-.632-1.2-52.811.1-.623,1.206a33.48,33.48,0,0,0-3.726,15.377c0,16.614,9.327,28.663,24.48,31.874v25.507c0,2.336-2.664,3.583-6.726,5.22-3.65,1.471-7.794,3.134-7.794,7.13v2.269l41.2-.426v-2.22c0-3.789-4.031-5.3-7.592-6.632-4.134-1.552-6.847-2.744-6.847-5.112,0-6.081-.018-20.448-.027-25.515C332.845,253.257,341.881,241.652,341.881,224.966Zm-27.556,28.089-1.812.354v1.847s.031,19.874.031,27.318c0,5.65,5.641,7.767,9.758,9.309l.686.256-24.883.26c.556-.242,1.117-.466,1.632-.673,4.027-1.623,9.538-3.843,9.538-9.381V253.064l-1.888-.3c-14.143-2.247-22.592-12.641-22.592-27.8a29.15,29.15,0,0,1,2.628-12.1l47.3-.094a29.046,29.046,0,0,1,2.672,12.2C337.4,240.154,329.2,250.132,314.325,253.055Zm-2.969-27.049s-4.1-1.9-5.251-1.726-13.345,7.789-13.345,7.789,10.834,7.273,18.767,7.354,18.538-7.354,18.538-7.354-12.269-7.583-13.587-7.789S311.356,226.006,311.356,226.006Zm-.04,5.377c-4.722,0-14.278.614-14.278.614s8.56-2.534,14.318-2.534S326.092,232,326.092,232,316.038,231.383,311.316,231.383Z" transform="translate(1011.375 1494.37)"/></g><g transform="translate(-791.687 -981.65)"><path class="e" d="M341.881,224.966a33.516,33.516,0,0,0-3.776-15.484l-.632-1.2-52.811.1-.623,1.206a33.48,33.48,0,0,0-3.726,15.377c0,16.614,9.327,28.663,24.48,31.874v25.507c0,2.336-2.664,3.583-6.726,5.22-3.65,1.471-7.794,3.134-7.794,7.13v2.269l41.2-.426v-2.22c0-3.789-4.031-5.3-7.592-6.632-4.134-1.552-6.847-2.744-6.847-5.112,0-6.081-.018-20.448-.027-25.515C332.845,253.257,341.881,241.652,341.881,224.966Zm-27.556,28.089-1.812.354v1.847s.031,19.874.031,27.318c0,5.65,5.641,7.767,9.758,9.309l.686.256-24.883.26c.556-.242,1.117-.466,1.632-.673,4.027-1.623,9.538-3.843,9.538-9.381V253.064l-1.888-.3c-14.143-2.247-22.592-12.641-22.592-27.8a29.15,29.15,0,0,1,2.628-12.1l47.3-.094a29.046,29.046,0,0,1,2.672,12.2C337.4,240.154,329.2,250.132,314.325,253.055Zm-2.969-27.049s-4.1-1.9-5.251-1.726-13.345,7.789-13.345,7.789,10.834,7.273,18.767,7.354,18.538-7.354,18.538-7.354-12.269-7.583-13.587-7.789S311.356,226.006,311.356,226.006Zm-.04,5.377c-4.722,0-14.278.614-14.278.614s8.56-2.534,14.318-2.534S326.092,232,326.092,232,316.038,231.383,311.316,231.383Z" transform="translate(1011.375 1494.37)"/></g></g><g class="d" transform="translate(602.814 2089.65)"><g transform="translate(-1291.687 -1702.65)"><path class="e" d="M341.881,224.966a33.516,33.516,0,0,0-3.776-15.484l-.632-1.2-52.811.1-.623,1.206a33.48,33.48,0,0,0-3.726,15.377c0,16.614,9.327,28.663,24.48,31.874v25.507c0,2.336-2.664,3.583-6.726,5.22-3.65,1.471-7.794,3.134-7.794,7.13v2.269l41.2-.426v-2.22c0-3.789-4.031-5.3-7.592-6.632-4.134-1.552-6.847-2.744-6.847-5.112,0-6.081-.018-20.448-.027-25.515C332.845,253.257,341.881,241.652,341.881,224.966Zm-27.556,28.089-1.812.354v1.847s.031,19.874.031,27.318c0,5.65,5.641,7.767,9.758,9.309l.686.256-24.883.26c.556-.242,1.117-.466,1.632-.673,4.027-1.623,9.538-3.843,9.538-9.381V253.064l-1.888-.3c-14.143-2.247-22.592-12.641-22.592-27.8a29.15,29.15,0,0,1,2.628-12.1l47.3-.094a29.046,29.046,0,0,1,2.672,12.2C337.4,240.154,329.2,250.132,314.325,253.055Zm-2.969-27.049s-4.1-1.9-5.251-1.726-13.345,7.789-13.345,7.789,10.834,7.273,18.767,7.354,18.538-7.354,18.538-7.354-12.269-7.583-13.587-7.789S311.356,226.006,311.356,226.006Zm-.04,5.377c-4.722,0-14.278.614-14.278.614s8.56-2.534,14.318-2.534S326.092,232,326.092,232,316.038,231.383,311.316,231.383Z" transform="translate(1011.375 1494.37)"/></g><g transform="translate(-1166.687 -1702.65)"><path class="e" d="M341.881,224.966a33.516,33.516,0,0,0-3.776-15.484l-.632-1.2-52.811.1-.623,1.206a33.48,33.48,0,0,0-3.726,15.377c0,16.614,9.327,28.663,24.48,31.874v25.507c0,2.336-2.664,3.583-6.726,5.22-3.65,1.471-7.794,3.134-7.794,7.13v2.269l41.2-.426v-2.22c0-3.789-4.031-5.3-7.592-6.632-4.134-1.552-6.847-2.744-6.847-5.112,0-6.081-.018-20.448-.027-25.515C332.845,253.257,341.881,241.652,341.881,224.966Zm-27.556,28.089-1.812.354v1.847s.031,19.874.031,27.318c0,5.65,5.641,7.767,9.758,9.309l.686.256-24.883.26c.556-.242,1.117-.466,1.632-.673,4.027-1.623,9.538-3.843,9.538-9.381V253.064l-1.888-.3c-14.143-2.247-22.592-12.641-22.592-27.8a29.15,29.15,0,0,1,2.628-12.1l47.3-.094a29.046,29.046,0,0,1,2.672,12.2C337.4,240.154,329.2,250.132,314.325,253.055Zm-2.969-27.049s-4.1-1.9-5.251-1.726-13.345,7.789-13.345,7.789,10.834,7.273,18.767,7.354,18.538-7.354,18.538-7.354-12.269-7.583-13.587-7.789S311.356,226.006,311.356,226.006Zm-.04,5.377c-4.722,0-14.278.614-14.278.614s8.56-2.534,14.318-2.534S326.092,232,326.092,232,316.038,231.383,311.316,231.383Z" transform="translate(1011.375 1494.37)"/></g><g transform="translate(-1041.687 -1702.65)"><path class="e" d="M341.881,224.966a33.516,33.516,0,0,0-3.776-15.484l-.632-1.2-52.811.1-.623,1.206a33.48,33.48,0,0,0-3.726,15.377c0,16.614,9.327,28.663,24.48,31.874v25.507c0,2.336-2.664,3.583-6.726,5.22-3.65,1.471-7.794,3.134-7.794,7.13v2.269l41.2-.426v-2.22c0-3.789-4.031-5.3-7.592-6.632-4.134-1.552-6.847-2.744-6.847-5.112,0-6.081-.018-20.448-.027-25.515C332.845,253.257,341.881,241.652,341.881,224.966Zm-27.556,28.089-1.812.354v1.847s.031,19.874.031,27.318c0,5.65,5.641,7.767,9.758,9.309l.686.256-24.883.26c.556-.242,1.117-.466,1.632-.673,4.027-1.623,9.538-3.843,9.538-9.381V253.064l-1.888-.3c-14.143-2.247-22.592-12.641-22.592-27.8a29.15,29.15,0,0,1,2.628-12.1l47.3-.094a29.046,29.046,0,0,1,2.672,12.2C337.4,240.154,329.2,250.132,314.325,253.055Zm-2.969-27.049s-4.1-1.9-5.251-1.726-13.345,7.789-13.345,7.789,10.834,7.273,18.767,7.354,18.538-7.354,18.538-7.354-12.269-7.583-13.587-7.789S311.356,226.006,311.356,226.006Zm-.04,5.377c-4.722,0-14.278.614-14.278.614s8.56-2.534,14.318-2.534S326.092,232,326.092,232,316.038,231.383,311.316,231.383Z" transform="translate(1011.375 1494.37)"/></g><g transform="translate(-916.687 -1702.65)"><path class="e" d="M341.881,224.966a33.516,33.516,0,0,0-3.776-15.484l-.632-1.2-52.811.1-.623,1.206a33.48,33.48,0,0,0-3.726,15.377c0,16.614,9.327,28.663,24.48,31.874v25.507c0,2.336-2.664,3.583-6.726,5.22-3.65,1.471-7.794,3.134-7.794,7.13v2.269l41.2-.426v-2.22c0-3.789-4.031-5.3-7.592-6.632-4.134-1.552-6.847-2.744-6.847-5.112,0-6.081-.018-20.448-.027-25.515C332.845,253.257,341.881,241.652,341.881,224.966Zm-27.556,28.089-1.812.354v1.847s.031,19.874.031,27.318c0,5.65,5.641,7.767,9.758,9.309l.686.256-24.883.26c.556-.242,1.117-.466,1.632-.673,4.027-1.623,9.538-3.843,9.538-9.381V253.064l-1.888-.3c-14.143-2.247-22.592-12.641-22.592-27.8a29.15,29.15,0,0,1,2.628-12.1l47.3-.094a29.046,29.046,0,0,1,2.672,12.2C337.4,240.154,329.2,250.132,314.325,253.055Zm-2.969-27.049s-4.1-1.9-5.251-1.726-13.345,7.789-13.345,7.789,10.834,7.273,18.767,7.354,18.538-7.354,18.538-7.354-12.269-7.583-13.587-7.789S311.356,226.006,311.356,226.006Zm-.04,5.377c-4.722,0-14.278.614-14.278.614s8.56-2.534,14.318-2.534S326.092,232,326.092,232,316.038,231.383,311.316,231.383Z" transform="translate(1011.375 1494.37)"/></g><g transform="translate(-791.687 -1702.65)"><path class="e" d="M341.881,224.966a33.516,33.516,0,0,0-3.776-15.484l-.632-1.2-52.811.1-.623,1.206a33.48,33.48,0,0,0-3.726,15.377c0,16.614,9.327,28.663,24.48,31.874v25.507c0,2.336-2.664,3.583-6.726,5.22-3.65,1.471-7.794,3.134-7.794,7.13v2.269l41.2-.426v-2.22c0-3.789-4.031-5.3-7.592-6.632-4.134-1.552-6.847-2.744-6.847-5.112,0-6.081-.018-20.448-.027-25.515C332.845,253.257,341.881,241.652,341.881,224.966Zm-27.556,28.089-1.812.354v1.847s.031,19.874.031,27.318c0,5.65,5.641,7.767,9.758,9.309l.686.256-24.883.26c.556-.242,1.117-.466,1.632-.673,4.027-1.623,9.538-3.843,9.538-9.381V253.064l-1.888-.3c-14.143-2.247-22.592-12.641-22.592-27.8a29.15,29.15,0,0,1,2.628-12.1l47.3-.094a29.046,29.046,0,0,1,2.672,12.2C337.4,240.154,329.2,250.132,314.325,253.055Zm-2.969-27.049s-4.1-1.9-5.251-1.726-13.345,7.789-13.345,7.789,10.834,7.273,18.767,7.354,18.538-7.354,18.538-7.354-12.269-7.583-13.587-7.789S311.356,226.006,311.356,226.006Zm-.04,5.377c-4.722,0-14.278.614-14.278.614s8.56-2.534,14.318-2.534S326.092,232,326.092,232,316.038,231.383,311.316,231.383Z" transform="translate(1011.375 1494.37)"/></g><g transform="translate(-1291.687 -1599.65)"><path class="e" d="M341.881,224.966a33.516,33.516,0,0,0-3.776-15.484l-.632-1.2-52.811.1-.623,1.206a33.48,33.48,0,0,0-3.726,15.377c0,16.614,9.327,28.663,24.48,31.874v25.507c0,2.336-2.664,3.583-6.726,5.22-3.65,1.471-7.794,3.134-7.794,7.13v2.269l41.2-.426v-2.22c0-3.789-4.031-5.3-7.592-6.632-4.134-1.552-6.847-2.744-6.847-5.112,0-6.081-.018-20.448-.027-25.515C332.845,253.257,341.881,241.652,341.881,224.966Zm-27.556,28.089-1.812.354v1.847s.031,19.874.031,27.318c0,5.65,5.641,7.767,9.758,9.309l.686.256-24.883.26c.556-.242,1.117-.466,1.632-.673,4.027-1.623,9.538-3.843,9.538-9.381V253.064l-1.888-.3c-14.143-2.247-22.592-12.641-22.592-27.8a29.15,29.15,0,0,1,2.628-12.1l47.3-.094a29.046,29.046,0,0,1,2.672,12.2C337.4,240.154,329.2,250.132,314.325,253.055Zm-2.969-27.049s-4.1-1.9-5.251-1.726-13.345,7.789-13.345,7.789,10.834,7.273,18.767,7.354,18.538-7.354,18.538-7.354-12.269-7.583-13.587-7.789S311.356,226.006,311.356,226.006Zm-.04,5.377c-4.722,0-14.278.614-14.278.614s8.56-2.534,14.318-2.534S326.092,232,326.092,232,316.038,231.383,311.316,231.383Z" transform="translate(1011.375 1494.37)"/></g><g transform="translate(-1166.687 -1599.65)"><path class="e" d="M341.881,224.966a33.516,33.516,0,0,0-3.776-15.484l-.632-1.2-52.811.1-.623,1.206a33.48,33.48,0,0,0-3.726,15.377c0,16.614,9.327,28.663,24.48,31.874v25.507c0,2.336-2.664,3.583-6.726,5.22-3.65,1.471-7.794,3.134-7.794,7.13v2.269l41.2-.426v-2.22c0-3.789-4.031-5.3-7.592-6.632-4.134-1.552-6.847-2.744-6.847-5.112,0-6.081-.018-20.448-.027-25.515C332.845,253.257,341.881,241.652,341.881,224.966Zm-27.556,28.089-1.812.354v1.847s.031,19.874.031,27.318c0,5.65,5.641,7.767,9.758,9.309l.686.256-24.883.26c.556-.242,1.117-.466,1.632-.673,4.027-1.623,9.538-3.843,9.538-9.381V253.064l-1.888-.3c-14.143-2.247-22.592-12.641-22.592-27.8a29.15,29.15,0,0,1,2.628-12.1l47.3-.094a29.046,29.046,0,0,1,2.672,12.2C337.4,240.154,329.2,250.132,314.325,253.055Zm-2.969-27.049s-4.1-1.9-5.251-1.726-13.345,7.789-13.345,7.789,10.834,7.273,18.767,7.354,18.538-7.354,18.538-7.354-12.269-7.583-13.587-7.789S311.356,226.006,311.356,226.006Zm-.04,5.377c-4.722,0-14.278.614-14.278.614s8.56-2.534,14.318-2.534S326.092,232,326.092,232,316.038,231.383,311.316,231.383Z" transform="translate(1011.375 1494.37)"/></g><g transform="translate(-1041.687 -1599.65)"><path class="e" d="M341.881,224.966a33.516,33.516,0,0,0-3.776-15.484l-.632-1.2-52.811.1-.623,1.206a33.48,33.48,0,0,0-3.726,15.377c0,16.614,9.327,28.663,24.48,31.874v25.507c0,2.336-2.664,3.583-6.726,5.22-3.65,1.471-7.794,3.134-7.794,7.13v2.269l41.2-.426v-2.22c0-3.789-4.031-5.3-7.592-6.632-4.134-1.552-6.847-2.744-6.847-5.112,0-6.081-.018-20.448-.027-25.515C332.845,253.257,341.881,241.652,341.881,224.966Zm-27.556,28.089-1.812.354v1.847s.031,19.874.031,27.318c0,5.65,5.641,7.767,9.758,9.309l.686.256-24.883.26c.556-.242,1.117-.466,1.632-.673,4.027-1.623,9.538-3.843,9.538-9.381V253.064l-1.888-.3c-14.143-2.247-22.592-12.641-22.592-27.8a29.15,29.15,0,0,1,2.628-12.1l47.3-.094a29.046,29.046,0,0,1,2.672,12.2C337.4,240.154,329.2,250.132,314.325,253.055Zm-2.969-27.049s-4.1-1.9-5.251-1.726-13.345,7.789-13.345,7.789,10.834,7.273,18.767,7.354,18.538-7.354,18.538-7.354-12.269-7.583-13.587-7.789S311.356,226.006,311.356,226.006Zm-.04,5.377c-4.722,0-14.278.614-14.278.614s8.56-2.534,14.318-2.534S326.092,232,326.092,232,316.038,231.383,311.316,231.383Z" transform="translate(1011.375 1494.37)"/></g><g transform="translate(-916.687 -1599.65)"><path class="e" d="M341.881,224.966a33.516,33.516,0,0,0-3.776-15.484l-.632-1.2-52.811.1-.623,1.206a33.48,33.48,0,0,0-3.726,15.377c0,16.614,9.327,28.663,24.48,31.874v25.507c0,2.336-2.664,3.583-6.726,5.22-3.65,1.471-7.794,3.134-7.794,7.13v2.269l41.2-.426v-2.22c0-3.789-4.031-5.3-7.592-6.632-4.134-1.552-6.847-2.744-6.847-5.112,0-6.081-.018-20.448-.027-25.515C332.845,253.257,341.881,241.652,341.881,224.966Zm-27.556,28.089-1.812.354v1.847s.031,19.874.031,27.318c0,5.65,5.641,7.767,9.758,9.309l.686.256-24.883.26c.556-.242,1.117-.466,1.632-.673,4.027-1.623,9.538-3.843,9.538-9.381V253.064l-1.888-.3c-14.143-2.247-22.592-12.641-22.592-27.8a29.15,29.15,0,0,1,2.628-12.1l47.3-.094a29.046,29.046,0,0,1,2.672,12.2C337.4,240.154,329.2,250.132,314.325,253.055Zm-2.969-27.049s-4.1-1.9-5.251-1.726-13.345,7.789-13.345,7.789,10.834,7.273,18.767,7.354,18.538-7.354,18.538-7.354-12.269-7.583-13.587-7.789S311.356,226.006,311.356,226.006Zm-.04,5.377c-4.722,0-14.278.614-14.278.614s8.56-2.534,14.318-2.534S326.092,232,326.092,232,316.038,231.383,311.316,231.383Z" transform="translate(1011.375 1494.37)"/></g><g transform="translate(-791.687 -1599.65)"><path class="e" d="M341.881,224.966a33.516,33.516,0,0,0-3.776-15.484l-.632-1.2-52.811.1-.623,1.206a33.48,33.48,0,0,0-3.726,15.377c0,16.614,9.327,28.663,24.48,31.874v25.507c0,2.336-2.664,3.583-6.726,5.22-3.65,1.471-7.794,3.134-7.794,7.13v2.269l41.2-.426v-2.22c0-3.789-4.031-5.3-7.592-6.632-4.134-1.552-6.847-2.744-6.847-5.112,0-6.081-.018-20.448-.027-25.515C332.845,253.257,341.881,241.652,341.881,224.966Zm-27.556,28.089-1.812.354v1.847s.031,19.874.031,27.318c0,5.65,5.641,7.767,9.758,9.309l.686.256-24.883.26c.556-.242,1.117-.466,1.632-.673,4.027-1.623,9.538-3.843,9.538-9.381V253.064l-1.888-.3c-14.143-2.247-22.592-12.641-22.592-27.8a29.15,29.15,0,0,1,2.628-12.1l47.3-.094a29.046,29.046,0,0,1,2.672,12.2C337.4,240.154,329.2,250.132,314.325,253.055Zm-2.969-27.049s-4.1-1.9-5.251-1.726-13.345,7.789-13.345,7.789,10.834,7.273,18.767,7.354,18.538-7.354,18.538-7.354-12.269-7.583-13.587-7.789S311.356,226.006,311.356,226.006Zm-.04,5.377c-4.722,0-14.278.614-14.278.614s8.56-2.534,14.318-2.534S326.092,232,326.092,232,316.038,231.383,311.316,231.383Z" transform="translate(1011.375 1494.37)"/></g><g transform="translate(-1291.687 -1496.65)"><path class="e" d="M341.881,224.966a33.516,33.516,0,0,0-3.776-15.484l-.632-1.2-52.811.1-.623,1.206a33.48,33.48,0,0,0-3.726,15.377c0,16.614,9.327,28.663,24.48,31.874v25.507c0,2.336-2.664,3.583-6.726,5.22-3.65,1.471-7.794,3.134-7.794,7.13v2.269l41.2-.426v-2.22c0-3.789-4.031-5.3-7.592-6.632-4.134-1.552-6.847-2.744-6.847-5.112,0-6.081-.018-20.448-.027-25.515C332.845,253.257,341.881,241.652,341.881,224.966Zm-27.556,28.089-1.812.354v1.847s.031,19.874.031,27.318c0,5.65,5.641,7.767,9.758,9.309l.686.256-24.883.26c.556-.242,1.117-.466,1.632-.673,4.027-1.623,9.538-3.843,9.538-9.381V253.064l-1.888-.3c-14.143-2.247-22.592-12.641-22.592-27.8a29.15,29.15,0,0,1,2.628-12.1l47.3-.094a29.046,29.046,0,0,1,2.672,12.2C337.4,240.154,329.2,250.132,314.325,253.055Zm-2.969-27.049s-4.1-1.9-5.251-1.726-13.345,7.789-13.345,7.789,10.834,7.273,18.767,7.354,18.538-7.354,18.538-7.354-12.269-7.583-13.587-7.789S311.356,226.006,311.356,226.006Zm-.04,5.377c-4.722,0-14.278.614-14.278.614s8.56-2.534,14.318-2.534S326.092,232,326.092,232,316.038,231.383,311.316,231.383Z" transform="translate(1011.375 1494.37)"/></g><g transform="translate(-1166.687 -1496.65)"><path class="e" d="M341.881,224.966a33.516,33.516,0,0,0-3.776-15.484l-.632-1.2-52.811.1-.623,1.206a33.48,33.48,0,0,0-3.726,15.377c0,16.614,9.327,28.663,24.48,31.874v25.507c0,2.336-2.664,3.583-6.726,5.22-3.65,1.471-7.794,3.134-7.794,7.13v2.269l41.2-.426v-2.22c0-3.789-4.031-5.3-7.592-6.632-4.134-1.552-6.847-2.744-6.847-5.112,0-6.081-.018-20.448-.027-25.515C332.845,253.257,341.881,241.652,341.881,224.966Zm-27.556,28.089-1.812.354v1.847s.031,19.874.031,27.318c0,5.65,5.641,7.767,9.758,9.309l.686.256-24.883.26c.556-.242,1.117-.466,1.632-.673,4.027-1.623,9.538-3.843,9.538-9.381V253.064l-1.888-.3c-14.143-2.247-22.592-12.641-22.592-27.8a29.15,29.15,0,0,1,2.628-12.1l47.3-.094a29.046,29.046,0,0,1,2.672,12.2C337.4,240.154,329.2,250.132,314.325,253.055Zm-2.969-27.049s-4.1-1.9-5.251-1.726-13.345,7.789-13.345,7.789,10.834,7.273,18.767,7.354,18.538-7.354,18.538-7.354-12.269-7.583-13.587-7.789S311.356,226.006,311.356,226.006Zm-.04,5.377c-4.722,0-14.278.614-14.278.614s8.56-2.534,14.318-2.534S326.092,232,326.092,232,316.038,231.383,311.316,231.383Z" transform="translate(1011.375 1494.37)"/></g><g transform="translate(-1041.687 -1496.65)"><path class="e" d="M341.881,224.966a33.516,33.516,0,0,0-3.776-15.484l-.632-1.2-52.811.1-.623,1.206a33.48,33.48,0,0,0-3.726,15.377c0,16.614,9.327,28.663,24.48,31.874v25.507c0,2.336-2.664,3.583-6.726,5.22-3.65,1.471-7.794,3.134-7.794,7.13v2.269l41.2-.426v-2.22c0-3.789-4.031-5.3-7.592-6.632-4.134-1.552-6.847-2.744-6.847-5.112,0-6.081-.018-20.448-.027-25.515C332.845,253.257,341.881,241.652,341.881,224.966Zm-27.556,28.089-1.812.354v1.847s.031,19.874.031,27.318c0,5.65,5.641,7.767,9.758,9.309l.686.256-24.883.26c.556-.242,1.117-.466,1.632-.673,4.027-1.623,9.538-3.843,9.538-9.381V253.064l-1.888-.3c-14.143-2.247-22.592-12.641-22.592-27.8a29.15,29.15,0,0,1,2.628-12.1l47.3-.094a29.046,29.046,0,0,1,2.672,12.2C337.4,240.154,329.2,250.132,314.325,253.055Zm-2.969-27.049s-4.1-1.9-5.251-1.726-13.345,7.789-13.345,7.789,10.834,7.273,18.767,7.354,18.538-7.354,18.538-7.354-12.269-7.583-13.587-7.789S311.356,226.006,311.356,226.006Zm-.04,5.377c-4.722,0-14.278.614-14.278.614s8.56-2.534,14.318-2.534S326.092,232,326.092,232,316.038,231.383,311.316,231.383Z" transform="translate(1011.375 1494.37)"/></g><g transform="translate(-916.687 -1496.65)"><path class="e" d="M341.881,224.966a33.516,33.516,0,0,0-3.776-15.484l-.632-1.2-52.811.1-.623,1.206a33.48,33.48,0,0,0-3.726,15.377c0,16.614,9.327,28.663,24.48,31.874v25.507c0,2.336-2.664,3.583-6.726,5.22-3.65,1.471-7.794,3.134-7.794,7.13v2.269l41.2-.426v-2.22c0-3.789-4.031-5.3-7.592-6.632-4.134-1.552-6.847-2.744-6.847-5.112,0-6.081-.018-20.448-.027-25.515C332.845,253.257,341.881,241.652,341.881,224.966Zm-27.556,28.089-1.812.354v1.847s.031,19.874.031,27.318c0,5.65,5.641,7.767,9.758,9.309l.686.256-24.883.26c.556-.242,1.117-.466,1.632-.673,4.027-1.623,9.538-3.843,9.538-9.381V253.064l-1.888-.3c-14.143-2.247-22.592-12.641-22.592-27.8a29.15,29.15,0,0,1,2.628-12.1l47.3-.094a29.046,29.046,0,0,1,2.672,12.2C337.4,240.154,329.2,250.132,314.325,253.055Zm-2.969-27.049s-4.1-1.9-5.251-1.726-13.345,7.789-13.345,7.789,10.834,7.273,18.767,7.354,18.538-7.354,18.538-7.354-12.269-7.583-13.587-7.789S311.356,226.006,311.356,226.006Zm-.04,5.377c-4.722,0-14.278.614-14.278.614s8.56-2.534,14.318-2.534S326.092,232,326.092,232,316.038,231.383,311.316,231.383Z" transform="translate(1011.375 1494.37)"/></g><g transform="translate(-791.687 -1496.65)"><path class="e" d="M341.881,224.966a33.516,33.516,0,0,0-3.776-15.484l-.632-1.2-52.811.1-.623,1.206a33.48,33.48,0,0,0-3.726,15.377c0,16.614,9.327,28.663,24.48,31.874v25.507c0,2.336-2.664,3.583-6.726,5.22-3.65,1.471-7.794,3.134-7.794,7.13v2.269l41.2-.426v-2.22c0-3.789-4.031-5.3-7.592-6.632-4.134-1.552-6.847-2.744-6.847-5.112,0-6.081-.018-20.448-.027-25.515C332.845,253.257,341.881,241.652,341.881,224.966Zm-27.556,28.089-1.812.354v1.847s.031,19.874.031,27.318c0,5.65,5.641,7.767,9.758,9.309l.686.256-24.883.26c.556-.242,1.117-.466,1.632-.673,4.027-1.623,9.538-3.843,9.538-9.381V253.064l-1.888-.3c-14.143-2.247-22.592-12.641-22.592-27.8a29.15,29.15,0,0,1,2.628-12.1l47.3-.094a29.046,29.046,0,0,1,2.672,12.2C337.4,240.154,329.2,250.132,314.325,253.055Zm-2.969-27.049s-4.1-1.9-5.251-1.726-13.345,7.789-13.345,7.789,10.834,7.273,18.767,7.354,18.538-7.354,18.538-7.354-12.269-7.583-13.587-7.789S311.356,226.006,311.356,226.006Zm-.04,5.377c-4.722,0-14.278.614-14.278.614s8.56-2.534,14.318-2.534S326.092,232,326.092,232,316.038,231.383,311.316,231.383Z" transform="translate(1011.375 1494.37)"/></g><g transform="translate(-1291.687 -1393.65)"><path class="e" d="M341.881,224.966a33.516,33.516,0,0,0-3.776-15.484l-.632-1.2-52.811.1-.623,1.206a33.48,33.48,0,0,0-3.726,15.377c0,16.614,9.327,28.663,24.48,31.874v25.507c0,2.336-2.664,3.583-6.726,5.22-3.65,1.471-7.794,3.134-7.794,7.13v2.269l41.2-.426v-2.22c0-3.789-4.031-5.3-7.592-6.632-4.134-1.552-6.847-2.744-6.847-5.112,0-6.081-.018-20.448-.027-25.515C332.845,253.257,341.881,241.652,341.881,224.966Zm-27.556,28.089-1.812.354v1.847s.031,19.874.031,27.318c0,5.65,5.641,7.767,9.758,9.309l.686.256-24.883.26c.556-.242,1.117-.466,1.632-.673,4.027-1.623,9.538-3.843,9.538-9.381V253.064l-1.888-.3c-14.143-2.247-22.592-12.641-22.592-27.8a29.15,29.15,0,0,1,2.628-12.1l47.3-.094a29.046,29.046,0,0,1,2.672,12.2C337.4,240.154,329.2,250.132,314.325,253.055Zm-2.969-27.049s-4.1-1.9-5.251-1.726-13.345,7.789-13.345,7.789,10.834,7.273,18.767,7.354,18.538-7.354,18.538-7.354-12.269-7.583-13.587-7.789S311.356,226.006,311.356,226.006Zm-.04,5.377c-4.722,0-14.278.614-14.278.614s8.56-2.534,14.318-2.534S326.092,232,326.092,232,316.038,231.383,311.316,231.383Z" transform="translate(1011.375 1494.37)"/></g><g transform="translate(-1166.687 -1393.65)"><path class="e" d="M341.881,224.966a33.516,33.516,0,0,0-3.776-15.484l-.632-1.2-52.811.1-.623,1.206a33.48,33.48,0,0,0-3.726,15.377c0,16.614,9.327,28.663,24.48,31.874v25.507c0,2.336-2.664,3.583-6.726,5.22-3.65,1.471-7.794,3.134-7.794,7.13v2.269l41.2-.426v-2.22c0-3.789-4.031-5.3-7.592-6.632-4.134-1.552-6.847-2.744-6.847-5.112,0-6.081-.018-20.448-.027-25.515C332.845,253.257,341.881,241.652,341.881,224.966Zm-27.556,28.089-1.812.354v1.847s.031,19.874.031,27.318c0,5.65,5.641,7.767,9.758,9.309l.686.256-24.883.26c.556-.242,1.117-.466,1.632-.673,4.027-1.623,9.538-3.843,9.538-9.381V253.064l-1.888-.3c-14.143-2.247-22.592-12.641-22.592-27.8a29.15,29.15,0,0,1,2.628-12.1l47.3-.094a29.046,29.046,0,0,1,2.672,12.2C337.4,240.154,329.2,250.132,314.325,253.055Zm-2.969-27.049s-4.1-1.9-5.251-1.726-13.345,7.789-13.345,7.789,10.834,7.273,18.767,7.354,18.538-7.354,18.538-7.354-12.269-7.583-13.587-7.789S311.356,226.006,311.356,226.006Zm-.04,5.377c-4.722,0-14.278.614-14.278.614s8.56-2.534,14.318-2.534S326.092,232,326.092,232,316.038,231.383,311.316,231.383Z" transform="translate(1011.375 1494.37)"/></g><g transform="translate(-1041.687 -1393.65)"><path class="e" d="M341.881,224.966a33.516,33.516,0,0,0-3.776-15.484l-.632-1.2-52.811.1-.623,1.206a33.48,33.48,0,0,0-3.726,15.377c0,16.614,9.327,28.663,24.48,31.874v25.507c0,2.336-2.664,3.583-6.726,5.22-3.65,1.471-7.794,3.134-7.794,7.13v2.269l41.2-.426v-2.22c0-3.789-4.031-5.3-7.592-6.632-4.134-1.552-6.847-2.744-6.847-5.112,0-6.081-.018-20.448-.027-25.515C332.845,253.257,341.881,241.652,341.881,224.966Zm-27.556,28.089-1.812.354v1.847s.031,19.874.031,27.318c0,5.65,5.641,7.767,9.758,9.309l.686.256-24.883.26c.556-.242,1.117-.466,1.632-.673,4.027-1.623,9.538-3.843,9.538-9.381V253.064l-1.888-.3c-14.143-2.247-22.592-12.641-22.592-27.8a29.15,29.15,0,0,1,2.628-12.1l47.3-.094a29.046,29.046,0,0,1,2.672,12.2C337.4,240.154,329.2,250.132,314.325,253.055Zm-2.969-27.049s-4.1-1.9-5.251-1.726-13.345,7.789-13.345,7.789,10.834,7.273,18.767,7.354,18.538-7.354,18.538-7.354-12.269-7.583-13.587-7.789S311.356,226.006,311.356,226.006Zm-.04,5.377c-4.722,0-14.278.614-14.278.614s8.56-2.534,14.318-2.534S326.092,232,326.092,232,316.038,231.383,311.316,231.383Z" transform="translate(1011.375 1494.37)"/></g><g transform="translate(-916.687 -1393.65)"><path class="e" d="M341.881,224.966a33.516,33.516,0,0,0-3.776-15.484l-.632-1.2-52.811.1-.623,1.206a33.48,33.48,0,0,0-3.726,15.377c0,16.614,9.327,28.663,24.48,31.874v25.507c0,2.336-2.664,3.583-6.726,5.22-3.65,1.471-7.794,3.134-7.794,7.13v2.269l41.2-.426v-2.22c0-3.789-4.031-5.3-7.592-6.632-4.134-1.552-6.847-2.744-6.847-5.112,0-6.081-.018-20.448-.027-25.515C332.845,253.257,341.881,241.652,341.881,224.966Zm-27.556,28.089-1.812.354v1.847s.031,19.874.031,27.318c0,5.65,5.641,7.767,9.758,9.309l.686.256-24.883.26c.556-.242,1.117-.466,1.632-.673,4.027-1.623,9.538-3.843,9.538-9.381V253.064l-1.888-.3c-14.143-2.247-22.592-12.641-22.592-27.8a29.15,29.15,0,0,1,2.628-12.1l47.3-.094a29.046,29.046,0,0,1,2.672,12.2C337.4,240.154,329.2,250.132,314.325,253.055Zm-2.969-27.049s-4.1-1.9-5.251-1.726-13.345,7.789-13.345,7.789,10.834,7.273,18.767,7.354,18.538-7.354,18.538-7.354-12.269-7.583-13.587-7.789S311.356,226.006,311.356,226.006Zm-.04,5.377c-4.722,0-14.278.614-14.278.614s8.56-2.534,14.318-2.534S326.092,232,326.092,232,316.038,231.383,311.316,231.383Z" transform="translate(1011.375 1494.37)"/></g><g transform="translate(-791.687 -1393.65)"><path class="e" d="M341.881,224.966a33.516,33.516,0,0,0-3.776-15.484l-.632-1.2-52.811.1-.623,1.206a33.48,33.48,0,0,0-3.726,15.377c0,16.614,9.327,28.663,24.48,31.874v25.507c0,2.336-2.664,3.583-6.726,5.22-3.65,1.471-7.794,3.134-7.794,7.13v2.269l41.2-.426v-2.22c0-3.789-4.031-5.3-7.592-6.632-4.134-1.552-6.847-2.744-6.847-5.112,0-6.081-.018-20.448-.027-25.515C332.845,253.257,341.881,241.652,341.881,224.966Zm-27.556,28.089-1.812.354v1.847s.031,19.874.031,27.318c0,5.65,5.641,7.767,9.758,9.309l.686.256-24.883.26c.556-.242,1.117-.466,1.632-.673,4.027-1.623,9.538-3.843,9.538-9.381V253.064l-1.888-.3c-14.143-2.247-22.592-12.641-22.592-27.8a29.15,29.15,0,0,1,2.628-12.1l47.3-.094a29.046,29.046,0,0,1,2.672,12.2C337.4,240.154,329.2,250.132,314.325,253.055Zm-2.969-27.049s-4.1-1.9-5.251-1.726-13.345,7.789-13.345,7.789,10.834,7.273,18.767,7.354,18.538-7.354,18.538-7.354-12.269-7.583-13.587-7.789S311.356,226.006,311.356,226.006Zm-.04,5.377c-4.722,0-14.278.614-14.278.614s8.56-2.534,14.318-2.534S326.092,232,326.092,232,316.038,231.383,311.316,231.383Z" transform="translate(1011.375 1494.37)"/></g><g transform="translate(-1291.687 -1290.65)"><path class="e" d="M341.881,224.966a33.516,33.516,0,0,0-3.776-15.484l-.632-1.2-52.811.1-.623,1.206a33.48,33.48,0,0,0-3.726,15.377c0,16.614,9.327,28.663,24.48,31.874v25.507c0,2.336-2.664,3.583-6.726,5.22-3.65,1.471-7.794,3.134-7.794,7.13v2.269l41.2-.426v-2.22c0-3.789-4.031-5.3-7.592-6.632-4.134-1.552-6.847-2.744-6.847-5.112,0-6.081-.018-20.448-.027-25.515C332.845,253.257,341.881,241.652,341.881,224.966Zm-27.556,28.089-1.812.354v1.847s.031,19.874.031,27.318c0,5.65,5.641,7.767,9.758,9.309l.686.256-24.883.26c.556-.242,1.117-.466,1.632-.673,4.027-1.623,9.538-3.843,9.538-9.381V253.064l-1.888-.3c-14.143-2.247-22.592-12.641-22.592-27.8a29.15,29.15,0,0,1,2.628-12.1l47.3-.094a29.046,29.046,0,0,1,2.672,12.2C337.4,240.154,329.2,250.132,314.325,253.055Zm-2.969-27.049s-4.1-1.9-5.251-1.726-13.345,7.789-13.345,7.789,10.834,7.273,18.767,7.354,18.538-7.354,18.538-7.354-12.269-7.583-13.587-7.789S311.356,226.006,311.356,226.006Zm-.04,5.377c-4.722,0-14.278.614-14.278.614s8.56-2.534,14.318-2.534S326.092,232,326.092,232,316.038,231.383,311.316,231.383Z" transform="translate(1011.375 1494.37)"/></g><g transform="translate(-1166.687 -1290.65)"><path class="e" d="M341.881,224.966a33.516,33.516,0,0,0-3.776-15.484l-.632-1.2-52.811.1-.623,1.206a33.48,33.48,0,0,0-3.726,15.377c0,16.614,9.327,28.663,24.48,31.874v25.507c0,2.336-2.664,3.583-6.726,5.22-3.65,1.471-7.794,3.134-7.794,7.13v2.269l41.2-.426v-2.22c0-3.789-4.031-5.3-7.592-6.632-4.134-1.552-6.847-2.744-6.847-5.112,0-6.081-.018-20.448-.027-25.515C332.845,253.257,341.881,241.652,341.881,224.966Zm-27.556,28.089-1.812.354v1.847s.031,19.874.031,27.318c0,5.65,5.641,7.767,9.758,9.309l.686.256-24.883.26c.556-.242,1.117-.466,1.632-.673,4.027-1.623,9.538-3.843,9.538-9.381V253.064l-1.888-.3c-14.143-2.247-22.592-12.641-22.592-27.8a29.15,29.15,0,0,1,2.628-12.1l47.3-.094a29.046,29.046,0,0,1,2.672,12.2C337.4,240.154,329.2,250.132,314.325,253.055Zm-2.969-27.049s-4.1-1.9-5.251-1.726-13.345,7.789-13.345,7.789,10.834,7.273,18.767,7.354,18.538-7.354,18.538-7.354-12.269-7.583-13.587-7.789S311.356,226.006,311.356,226.006Zm-.04,5.377c-4.722,0-14.278.614-14.278.614s8.56-2.534,14.318-2.534S326.092,232,326.092,232,316.038,231.383,311.316,231.383Z" transform="translate(1011.375 1494.37)"/></g><g transform="translate(-1041.687 -1290.65)"><path class="e" d="M341.881,224.966a33.516,33.516,0,0,0-3.776-15.484l-.632-1.2-52.811.1-.623,1.206a33.48,33.48,0,0,0-3.726,15.377c0,16.614,9.327,28.663,24.48,31.874v25.507c0,2.336-2.664,3.583-6.726,5.22-3.65,1.471-7.794,3.134-7.794,7.13v2.269l41.2-.426v-2.22c0-3.789-4.031-5.3-7.592-6.632-4.134-1.552-6.847-2.744-6.847-5.112,0-6.081-.018-20.448-.027-25.515C332.845,253.257,341.881,241.652,341.881,224.966Zm-27.556,28.089-1.812.354v1.847s.031,19.874.031,27.318c0,5.65,5.641,7.767,9.758,9.309l.686.256-24.883.26c.556-.242,1.117-.466,1.632-.673,4.027-1.623,9.538-3.843,9.538-9.381V253.064l-1.888-.3c-14.143-2.247-22.592-12.641-22.592-27.8a29.15,29.15,0,0,1,2.628-12.1l47.3-.094a29.046,29.046,0,0,1,2.672,12.2C337.4,240.154,329.2,250.132,314.325,253.055Zm-2.969-27.049s-4.1-1.9-5.251-1.726-13.345,7.789-13.345,7.789,10.834,7.273,18.767,7.354,18.538-7.354,18.538-7.354-12.269-7.583-13.587-7.789S311.356,226.006,311.356,226.006Zm-.04,5.377c-4.722,0-14.278.614-14.278.614s8.56-2.534,14.318-2.534S326.092,232,326.092,232,316.038,231.383,311.316,231.383Z" transform="translate(1011.375 1494.37)"/></g><g transform="translate(-916.687 -1290.65)"><path class="e" d="M341.881,224.966a33.516,33.516,0,0,0-3.776-15.484l-.632-1.2-52.811.1-.623,1.206a33.48,33.48,0,0,0-3.726,15.377c0,16.614,9.327,28.663,24.48,31.874v25.507c0,2.336-2.664,3.583-6.726,5.22-3.65,1.471-7.794,3.134-7.794,7.13v2.269l41.2-.426v-2.22c0-3.789-4.031-5.3-7.592-6.632-4.134-1.552-6.847-2.744-6.847-5.112,0-6.081-.018-20.448-.027-25.515C332.845,253.257,341.881,241.652,341.881,224.966Zm-27.556,28.089-1.812.354v1.847s.031,19.874.031,27.318c0,5.65,5.641,7.767,9.758,9.309l.686.256-24.883.26c.556-.242,1.117-.466,1.632-.673,4.027-1.623,9.538-3.843,9.538-9.381V253.064l-1.888-.3c-14.143-2.247-22.592-12.641-22.592-27.8a29.15,29.15,0,0,1,2.628-12.1l47.3-.094a29.046,29.046,0,0,1,2.672,12.2C337.4,240.154,329.2,250.132,314.325,253.055Zm-2.969-27.049s-4.1-1.9-5.251-1.726-13.345,7.789-13.345,7.789,10.834,7.273,18.767,7.354,18.538-7.354,18.538-7.354-12.269-7.583-13.587-7.789S311.356,226.006,311.356,226.006Zm-.04,5.377c-4.722,0-14.278.614-14.278.614s8.56-2.534,14.318-2.534S326.092,232,326.092,232,316.038,231.383,311.316,231.383Z" transform="translate(1011.375 1494.37)"/></g><g transform="translate(-791.687 -1290.65)"><path class="e" d="M341.881,224.966a33.516,33.516,0,0,0-3.776-15.484l-.632-1.2-52.811.1-.623,1.206a33.48,33.48,0,0,0-3.726,15.377c0,16.614,9.327,28.663,24.48,31.874v25.507c0,2.336-2.664,3.583-6.726,5.22-3.65,1.471-7.794,3.134-7.794,7.13v2.269l41.2-.426v-2.22c0-3.789-4.031-5.3-7.592-6.632-4.134-1.552-6.847-2.744-6.847-5.112,0-6.081-.018-20.448-.027-25.515C332.845,253.257,341.881,241.652,341.881,224.966Zm-27.556,28.089-1.812.354v1.847s.031,19.874.031,27.318c0,5.65,5.641,7.767,9.758,9.309l.686.256-24.883.26c.556-.242,1.117-.466,1.632-.673,4.027-1.623,9.538-3.843,9.538-9.381V253.064l-1.888-.3c-14.143-2.247-22.592-12.641-22.592-27.8a29.15,29.15,0,0,1,2.628-12.1l47.3-.094a29.046,29.046,0,0,1,2.672,12.2C337.4,240.154,329.2,250.132,314.325,253.055Zm-2.969-27.049s-4.1-1.9-5.251-1.726-13.345,7.789-13.345,7.789,10.834,7.273,18.767,7.354,18.538-7.354,18.538-7.354-12.269-7.583-13.587-7.789S311.356,226.006,311.356,226.006Zm-.04,5.377c-4.722,0-14.278.614-14.278.614s8.56-2.534,14.318-2.534S326.092,232,326.092,232,316.038,231.383,311.316,231.383Z" transform="translate(1011.375 1494.37)"/></g><g transform="translate(-1291.687 -1187.65)"><path class="e" d="M341.881,224.966a33.516,33.516,0,0,0-3.776-15.484l-.632-1.2-52.811.1-.623,1.206a33.48,33.48,0,0,0-3.726,15.377c0,16.614,9.327,28.663,24.48,31.874v25.507c0,2.336-2.664,3.583-6.726,5.22-3.65,1.471-7.794,3.134-7.794,7.13v2.269l41.2-.426v-2.22c0-3.789-4.031-5.3-7.592-6.632-4.134-1.552-6.847-2.744-6.847-5.112,0-6.081-.018-20.448-.027-25.515C332.845,253.257,341.881,241.652,341.881,224.966Zm-27.556,28.089-1.812.354v1.847s.031,19.874.031,27.318c0,5.65,5.641,7.767,9.758,9.309l.686.256-24.883.26c.556-.242,1.117-.466,1.632-.673,4.027-1.623,9.538-3.843,9.538-9.381V253.064l-1.888-.3c-14.143-2.247-22.592-12.641-22.592-27.8a29.15,29.15,0,0,1,2.628-12.1l47.3-.094a29.046,29.046,0,0,1,2.672,12.2C337.4,240.154,329.2,250.132,314.325,253.055Zm-2.969-27.049s-4.1-1.9-5.251-1.726-13.345,7.789-13.345,7.789,10.834,7.273,18.767,7.354,18.538-7.354,18.538-7.354-12.269-7.583-13.587-7.789S311.356,226.006,311.356,226.006Zm-.04,5.377c-4.722,0-14.278.614-14.278.614s8.56-2.534,14.318-2.534S326.092,232,326.092,232,316.038,231.383,311.316,231.383Z" transform="translate(1011.375 1494.37)"/></g><g transform="translate(-1166.687 -1187.65)"><path class="e" d="M341.881,224.966a33.516,33.516,0,0,0-3.776-15.484l-.632-1.2-52.811.1-.623,1.206a33.48,33.48,0,0,0-3.726,15.377c0,16.614,9.327,28.663,24.48,31.874v25.507c0,2.336-2.664,3.583-6.726,5.22-3.65,1.471-7.794,3.134-7.794,7.13v2.269l41.2-.426v-2.22c0-3.789-4.031-5.3-7.592-6.632-4.134-1.552-6.847-2.744-6.847-5.112,0-6.081-.018-20.448-.027-25.515C332.845,253.257,341.881,241.652,341.881,224.966Zm-27.556,28.089-1.812.354v1.847s.031,19.874.031,27.318c0,5.65,5.641,7.767,9.758,9.309l.686.256-24.883.26c.556-.242,1.117-.466,1.632-.673,4.027-1.623,9.538-3.843,9.538-9.381V253.064l-1.888-.3c-14.143-2.247-22.592-12.641-22.592-27.8a29.15,29.15,0,0,1,2.628-12.1l47.3-.094a29.046,29.046,0,0,1,2.672,12.2C337.4,240.154,329.2,250.132,314.325,253.055Zm-2.969-27.049s-4.1-1.9-5.251-1.726-13.345,7.789-13.345,7.789,10.834,7.273,18.767,7.354,18.538-7.354,18.538-7.354-12.269-7.583-13.587-7.789S311.356,226.006,311.356,226.006Zm-.04,5.377c-4.722,0-14.278.614-14.278.614s8.56-2.534,14.318-2.534S326.092,232,326.092,232,316.038,231.383,311.316,231.383Z" transform="translate(1011.375 1494.37)"/></g><g transform="translate(-1041.687 -1187.65)"><path class="e" d="M341.881,224.966a33.516,33.516,0,0,0-3.776-15.484l-.632-1.2-52.811.1-.623,1.206a33.48,33.48,0,0,0-3.726,15.377c0,16.614,9.327,28.663,24.48,31.874v25.507c0,2.336-2.664,3.583-6.726,5.22-3.65,1.471-7.794,3.134-7.794,7.13v2.269l41.2-.426v-2.22c0-3.789-4.031-5.3-7.592-6.632-4.134-1.552-6.847-2.744-6.847-5.112,0-6.081-.018-20.448-.027-25.515C332.845,253.257,341.881,241.652,341.881,224.966Zm-27.556,28.089-1.812.354v1.847s.031,19.874.031,27.318c0,5.65,5.641,7.767,9.758,9.309l.686.256-24.883.26c.556-.242,1.117-.466,1.632-.673,4.027-1.623,9.538-3.843,9.538-9.381V253.064l-1.888-.3c-14.143-2.247-22.592-12.641-22.592-27.8a29.15,29.15,0,0,1,2.628-12.1l47.3-.094a29.046,29.046,0,0,1,2.672,12.2C337.4,240.154,329.2,250.132,314.325,253.055Zm-2.969-27.049s-4.1-1.9-5.251-1.726-13.345,7.789-13.345,7.789,10.834,7.273,18.767,7.354,18.538-7.354,18.538-7.354-12.269-7.583-13.587-7.789S311.356,226.006,311.356,226.006Zm-.04,5.377c-4.722,0-14.278.614-14.278.614s8.56-2.534,14.318-2.534S326.092,232,326.092,232,316.038,231.383,311.316,231.383Z" transform="translate(1011.375 1494.37)"/></g><g transform="translate(-916.687 -1187.65)"><path class="e" d="M341.881,224.966a33.516,33.516,0,0,0-3.776-15.484l-.632-1.2-52.811.1-.623,1.206a33.48,33.48,0,0,0-3.726,15.377c0,16.614,9.327,28.663,24.48,31.874v25.507c0,2.336-2.664,3.583-6.726,5.22-3.65,1.471-7.794,3.134-7.794,7.13v2.269l41.2-.426v-2.22c0-3.789-4.031-5.3-7.592-6.632-4.134-1.552-6.847-2.744-6.847-5.112,0-6.081-.018-20.448-.027-25.515C332.845,253.257,341.881,241.652,341.881,224.966Zm-27.556,28.089-1.812.354v1.847s.031,19.874.031,27.318c0,5.65,5.641,7.767,9.758,9.309l.686.256-24.883.26c.556-.242,1.117-.466,1.632-.673,4.027-1.623,9.538-3.843,9.538-9.381V253.064l-1.888-.3c-14.143-2.247-22.592-12.641-22.592-27.8a29.15,29.15,0,0,1,2.628-12.1l47.3-.094a29.046,29.046,0,0,1,2.672,12.2C337.4,240.154,329.2,250.132,314.325,253.055Zm-2.969-27.049s-4.1-1.9-5.251-1.726-13.345,7.789-13.345,7.789,10.834,7.273,18.767,7.354,18.538-7.354,18.538-7.354-12.269-7.583-13.587-7.789S311.356,226.006,311.356,226.006Zm-.04,5.377c-4.722,0-14.278.614-14.278.614s8.56-2.534,14.318-2.534S326.092,232,326.092,232,316.038,231.383,311.316,231.383Z" transform="translate(1011.375 1494.37)"/></g><g transform="translate(-791.687 -1187.65)"><path class="e" d="M341.881,224.966a33.516,33.516,0,0,0-3.776-15.484l-.632-1.2-52.811.1-.623,1.206a33.48,33.48,0,0,0-3.726,15.377c0,16.614,9.327,28.663,24.48,31.874v25.507c0,2.336-2.664,3.583-6.726,5.22-3.65,1.471-7.794,3.134-7.794,7.13v2.269l41.2-.426v-2.22c0-3.789-4.031-5.3-7.592-6.632-4.134-1.552-6.847-2.744-6.847-5.112,0-6.081-.018-20.448-.027-25.515C332.845,253.257,341.881,241.652,341.881,224.966Zm-27.556,28.089-1.812.354v1.847s.031,19.874.031,27.318c0,5.65,5.641,7.767,9.758,9.309l.686.256-24.883.26c.556-.242,1.117-.466,1.632-.673,4.027-1.623,9.538-3.843,9.538-9.381V253.064l-1.888-.3c-14.143-2.247-22.592-12.641-22.592-27.8a29.15,29.15,0,0,1,2.628-12.1l47.3-.094a29.046,29.046,0,0,1,2.672,12.2C337.4,240.154,329.2,250.132,314.325,253.055Zm-2.969-27.049s-4.1-1.9-5.251-1.726-13.345,7.789-13.345,7.789,10.834,7.273,18.767,7.354,18.538-7.354,18.538-7.354-12.269-7.583-13.587-7.789S311.356,226.006,311.356,226.006Zm-.04,5.377c-4.722,0-14.278.614-14.278.614s8.56-2.534,14.318-2.534S326.092,232,326.092,232,316.038,231.383,311.316,231.383Z" transform="translate(1011.375 1494.37)"/></g><g transform="translate(-1291.687 -1084.65)"><path class="e" d="M341.881,224.966a33.516,33.516,0,0,0-3.776-15.484l-.632-1.2-52.811.1-.623,1.206a33.48,33.48,0,0,0-3.726,15.377c0,16.614,9.327,28.663,24.48,31.874v25.507c0,2.336-2.664,3.583-6.726,5.22-3.65,1.471-7.794,3.134-7.794,7.13v2.269l41.2-.426v-2.22c0-3.789-4.031-5.3-7.592-6.632-4.134-1.552-6.847-2.744-6.847-5.112,0-6.081-.018-20.448-.027-25.515C332.845,253.257,341.881,241.652,341.881,224.966Zm-27.556,28.089-1.812.354v1.847s.031,19.874.031,27.318c0,5.65,5.641,7.767,9.758,9.309l.686.256-24.883.26c.556-.242,1.117-.466,1.632-.673,4.027-1.623,9.538-3.843,9.538-9.381V253.064l-1.888-.3c-14.143-2.247-22.592-12.641-22.592-27.8a29.15,29.15,0,0,1,2.628-12.1l47.3-.094a29.046,29.046,0,0,1,2.672,12.2C337.4,240.154,329.2,250.132,314.325,253.055Zm-2.969-27.049s-4.1-1.9-5.251-1.726-13.345,7.789-13.345,7.789,10.834,7.273,18.767,7.354,18.538-7.354,18.538-7.354-12.269-7.583-13.587-7.789S311.356,226.006,311.356,226.006Zm-.04,5.377c-4.722,0-14.278.614-14.278.614s8.56-2.534,14.318-2.534S326.092,232,326.092,232,316.038,231.383,311.316,231.383Z" transform="translate(1011.375 1494.37)"/></g><g transform="translate(-1166.687 -1084.65)"><path class="e" d="M341.881,224.966a33.516,33.516,0,0,0-3.776-15.484l-.632-1.2-52.811.1-.623,1.206a33.48,33.48,0,0,0-3.726,15.377c0,16.614,9.327,28.663,24.48,31.874v25.507c0,2.336-2.664,3.583-6.726,5.22-3.65,1.471-7.794,3.134-7.794,7.13v2.269l41.2-.426v-2.22c0-3.789-4.031-5.3-7.592-6.632-4.134-1.552-6.847-2.744-6.847-5.112,0-6.081-.018-20.448-.027-25.515C332.845,253.257,341.881,241.652,341.881,224.966Zm-27.556,28.089-1.812.354v1.847s.031,19.874.031,27.318c0,5.65,5.641,7.767,9.758,9.309l.686.256-24.883.26c.556-.242,1.117-.466,1.632-.673,4.027-1.623,9.538-3.843,9.538-9.381V253.064l-1.888-.3c-14.143-2.247-22.592-12.641-22.592-27.8a29.15,29.15,0,0,1,2.628-12.1l47.3-.094a29.046,29.046,0,0,1,2.672,12.2C337.4,240.154,329.2,250.132,314.325,253.055Zm-2.969-27.049s-4.1-1.9-5.251-1.726-13.345,7.789-13.345,7.789,10.834,7.273,18.767,7.354,18.538-7.354,18.538-7.354-12.269-7.583-13.587-7.789S311.356,226.006,311.356,226.006Zm-.04,5.377c-4.722,0-14.278.614-14.278.614s8.56-2.534,14.318-2.534S326.092,232,326.092,232,316.038,231.383,311.316,231.383Z" transform="translate(1011.375 1494.37)"/></g><g transform="translate(-1041.687 -1084.65)"><path class="e" d="M341.881,224.966a33.516,33.516,0,0,0-3.776-15.484l-.632-1.2-52.811.1-.623,1.206a33.48,33.48,0,0,0-3.726,15.377c0,16.614,9.327,28.663,24.48,31.874v25.507c0,2.336-2.664,3.583-6.726,5.22-3.65,1.471-7.794,3.134-7.794,7.13v2.269l41.2-.426v-2.22c0-3.789-4.031-5.3-7.592-6.632-4.134-1.552-6.847-2.744-6.847-5.112,0-6.081-.018-20.448-.027-25.515C332.845,253.257,341.881,241.652,341.881,224.966Zm-27.556,28.089-1.812.354v1.847s.031,19.874.031,27.318c0,5.65,5.641,7.767,9.758,9.309l.686.256-24.883.26c.556-.242,1.117-.466,1.632-.673,4.027-1.623,9.538-3.843,9.538-9.381V253.064l-1.888-.3c-14.143-2.247-22.592-12.641-22.592-27.8a29.15,29.15,0,0,1,2.628-12.1l47.3-.094a29.046,29.046,0,0,1,2.672,12.2C337.4,240.154,329.2,250.132,314.325,253.055Zm-2.969-27.049s-4.1-1.9-5.251-1.726-13.345,7.789-13.345,7.789,10.834,7.273,18.767,7.354,18.538-7.354,18.538-7.354-12.269-7.583-13.587-7.789S311.356,226.006,311.356,226.006Zm-.04,5.377c-4.722,0-14.278.614-14.278.614s8.56-2.534,14.318-2.534S326.092,232,326.092,232,316.038,231.383,311.316,231.383Z" transform="translate(1011.375 1494.37)"/></g><g transform="translate(-916.687 -1084.65)"><path class="e" d="M341.881,224.966a33.516,33.516,0,0,0-3.776-15.484l-.632-1.2-52.811.1-.623,1.206a33.48,33.48,0,0,0-3.726,15.377c0,16.614,9.327,28.663,24.48,31.874v25.507c0,2.336-2.664,3.583-6.726,5.22-3.65,1.471-7.794,3.134-7.794,7.13v2.269l41.2-.426v-2.22c0-3.789-4.031-5.3-7.592-6.632-4.134-1.552-6.847-2.744-6.847-5.112,0-6.081-.018-20.448-.027-25.515C332.845,253.257,341.881,241.652,341.881,224.966Zm-27.556,28.089-1.812.354v1.847s.031,19.874.031,27.318c0,5.65,5.641,7.767,9.758,9.309l.686.256-24.883.26c.556-.242,1.117-.466,1.632-.673,4.027-1.623,9.538-3.843,9.538-9.381V253.064l-1.888-.3c-14.143-2.247-22.592-12.641-22.592-27.8a29.15,29.15,0,0,1,2.628-12.1l47.3-.094a29.046,29.046,0,0,1,2.672,12.2C337.4,240.154,329.2,250.132,314.325,253.055Zm-2.969-27.049s-4.1-1.9-5.251-1.726-13.345,7.789-13.345,7.789,10.834,7.273,18.767,7.354,18.538-7.354,18.538-7.354-12.269-7.583-13.587-7.789S311.356,226.006,311.356,226.006Zm-.04,5.377c-4.722,0-14.278.614-14.278.614s8.56-2.534,14.318-2.534S326.092,232,326.092,232,316.038,231.383,311.316,231.383Z" transform="translate(1011.375 1494.37)"/></g><g transform="translate(-791.687 -1084.65)"><path class="e" d="M341.881,224.966a33.516,33.516,0,0,0-3.776-15.484l-.632-1.2-52.811.1-.623,1.206a33.48,33.48,0,0,0-3.726,15.377c0,16.614,9.327,28.663,24.48,31.874v25.507c0,2.336-2.664,3.583-6.726,5.22-3.65,1.471-7.794,3.134-7.794,7.13v2.269l41.2-.426v-2.22c0-3.789-4.031-5.3-7.592-6.632-4.134-1.552-6.847-2.744-6.847-5.112,0-6.081-.018-20.448-.027-25.515C332.845,253.257,341.881,241.652,341.881,224.966Zm-27.556,28.089-1.812.354v1.847s.031,19.874.031,27.318c0,5.65,5.641,7.767,9.758,9.309l.686.256-24.883.26c.556-.242,1.117-.466,1.632-.673,4.027-1.623,9.538-3.843,9.538-9.381V253.064l-1.888-.3c-14.143-2.247-22.592-12.641-22.592-27.8a29.15,29.15,0,0,1,2.628-12.1l47.3-.094a29.046,29.046,0,0,1,2.672,12.2C337.4,240.154,329.2,250.132,314.325,253.055Zm-2.969-27.049s-4.1-1.9-5.251-1.726-13.345,7.789-13.345,7.789,10.834,7.273,18.767,7.354,18.538-7.354,18.538-7.354-12.269-7.583-13.587-7.789S311.356,226.006,311.356,226.006Zm-.04,5.377c-4.722,0-14.278.614-14.278.614s8.56-2.534,14.318-2.534S326.092,232,326.092,232,316.038,231.383,311.316,231.383Z" transform="translate(1011.375 1494.37)"/></g><g transform="translate(-1291.687 -981.65)"><path class="e" d="M341.881,224.966a33.516,33.516,0,0,0-3.776-15.484l-.632-1.2-52.811.1-.623,1.206a33.48,33.48,0,0,0-3.726,15.377c0,16.614,9.327,28.663,24.48,31.874v25.507c0,2.336-2.664,3.583-6.726,5.22-3.65,1.471-7.794,3.134-7.794,7.13v2.269l41.2-.426v-2.22c0-3.789-4.031-5.3-7.592-6.632-4.134-1.552-6.847-2.744-6.847-5.112,0-6.081-.018-20.448-.027-25.515C332.845,253.257,341.881,241.652,341.881,224.966Zm-27.556,28.089-1.812.354v1.847s.031,19.874.031,27.318c0,5.65,5.641,7.767,9.758,9.309l.686.256-24.883.26c.556-.242,1.117-.466,1.632-.673,4.027-1.623,9.538-3.843,9.538-9.381V253.064l-1.888-.3c-14.143-2.247-22.592-12.641-22.592-27.8a29.15,29.15,0,0,1,2.628-12.1l47.3-.094a29.046,29.046,0,0,1,2.672,12.2C337.4,240.154,329.2,250.132,314.325,253.055Zm-2.969-27.049s-4.1-1.9-5.251-1.726-13.345,7.789-13.345,7.789,10.834,7.273,18.767,7.354,18.538-7.354,18.538-7.354-12.269-7.583-13.587-7.789S311.356,226.006,311.356,226.006Zm-.04,5.377c-4.722,0-14.278.614-14.278.614s8.56-2.534,14.318-2.534S326.092,232,326.092,232,316.038,231.383,311.316,231.383Z" transform="translate(1011.375 1494.37)"/></g><g transform="translate(-1166.687 -981.65)"><path class="e" d="M341.881,224.966a33.516,33.516,0,0,0-3.776-15.484l-.632-1.2-52.811.1-.623,1.206a33.48,33.48,0,0,0-3.726,15.377c0,16.614,9.327,28.663,24.48,31.874v25.507c0,2.336-2.664,3.583-6.726,5.22-3.65,1.471-7.794,3.134-7.794,7.13v2.269l41.2-.426v-2.22c0-3.789-4.031-5.3-7.592-6.632-4.134-1.552-6.847-2.744-6.847-5.112,0-6.081-.018-20.448-.027-25.515C332.845,253.257,341.881,241.652,341.881,224.966Zm-27.556,28.089-1.812.354v1.847s.031,19.874.031,27.318c0,5.65,5.641,7.767,9.758,9.309l.686.256-24.883.26c.556-.242,1.117-.466,1.632-.673,4.027-1.623,9.538-3.843,9.538-9.381V253.064l-1.888-.3c-14.143-2.247-22.592-12.641-22.592-27.8a29.15,29.15,0,0,1,2.628-12.1l47.3-.094a29.046,29.046,0,0,1,2.672,12.2C337.4,240.154,329.2,250.132,314.325,253.055Zm-2.969-27.049s-4.1-1.9-5.251-1.726-13.345,7.789-13.345,7.789,10.834,7.273,18.767,7.354,18.538-7.354,18.538-7.354-12.269-7.583-13.587-7.789S311.356,226.006,311.356,226.006Zm-.04,5.377c-4.722,0-14.278.614-14.278.614s8.56-2.534,14.318-2.534S326.092,232,326.092,232,316.038,231.383,311.316,231.383Z" transform="translate(1011.375 1494.37)"/></g><g transform="translate(-1041.687 -981.65)"><path class="e" d="M341.881,224.966a33.516,33.516,0,0,0-3.776-15.484l-.632-1.2-52.811.1-.623,1.206a33.48,33.48,0,0,0-3.726,15.377c0,16.614,9.327,28.663,24.48,31.874v25.507c0,2.336-2.664,3.583-6.726,5.22-3.65,1.471-7.794,3.134-7.794,7.13v2.269l41.2-.426v-2.22c0-3.789-4.031-5.3-7.592-6.632-4.134-1.552-6.847-2.744-6.847-5.112,0-6.081-.018-20.448-.027-25.515C332.845,253.257,341.881,241.652,341.881,224.966Zm-27.556,28.089-1.812.354v1.847s.031,19.874.031,27.318c0,5.65,5.641,7.767,9.758,9.309l.686.256-24.883.26c.556-.242,1.117-.466,1.632-.673,4.027-1.623,9.538-3.843,9.538-9.381V253.064l-1.888-.3c-14.143-2.247-22.592-12.641-22.592-27.8a29.15,29.15,0,0,1,2.628-12.1l47.3-.094a29.046,29.046,0,0,1,2.672,12.2C337.4,240.154,329.2,250.132,314.325,253.055Zm-2.969-27.049s-4.1-1.9-5.251-1.726-13.345,7.789-13.345,7.789,10.834,7.273,18.767,7.354,18.538-7.354,18.538-7.354-12.269-7.583-13.587-7.789S311.356,226.006,311.356,226.006Zm-.04,5.377c-4.722,0-14.278.614-14.278.614s8.56-2.534,14.318-2.534S326.092,232,326.092,232,316.038,231.383,311.316,231.383Z" transform="translate(1011.375 1494.37)"/></g><g transform="translate(-916.687 -981.65)"><path class="e" d="M341.881,224.966a33.516,33.516,0,0,0-3.776-15.484l-.632-1.2-52.811.1-.623,1.206a33.48,33.48,0,0,0-3.726,15.377c0,16.614,9.327,28.663,24.48,31.874v25.507c0,2.336-2.664,3.583-6.726,5.22-3.65,1.471-7.794,3.134-7.794,7.13v2.269l41.2-.426v-2.22c0-3.789-4.031-5.3-7.592-6.632-4.134-1.552-6.847-2.744-6.847-5.112,0-6.081-.018-20.448-.027-25.515C332.845,253.257,341.881,241.652,341.881,224.966Zm-27.556,28.089-1.812.354v1.847s.031,19.874.031,27.318c0,5.65,5.641,7.767,9.758,9.309l.686.256-24.883.26c.556-.242,1.117-.466,1.632-.673,4.027-1.623,9.538-3.843,9.538-9.381V253.064l-1.888-.3c-14.143-2.247-22.592-12.641-22.592-27.8a29.15,29.15,0,0,1,2.628-12.1l47.3-.094a29.046,29.046,0,0,1,2.672,12.2C337.4,240.154,329.2,250.132,314.325,253.055Zm-2.969-27.049s-4.1-1.9-5.251-1.726-13.345,7.789-13.345,7.789,10.834,7.273,18.767,7.354,18.538-7.354,18.538-7.354-12.269-7.583-13.587-7.789S311.356,226.006,311.356,226.006Zm-.04,5.377c-4.722,0-14.278.614-14.278.614s8.56-2.534,14.318-2.534S326.092,232,326.092,232,316.038,231.383,311.316,231.383Z" transform="translate(1011.375 1494.37)"/></g><g transform="translate(-791.687 -981.65)"><path class="e" d="M341.881,224.966a33.516,33.516,0,0,0-3.776-15.484l-.632-1.2-52.811.1-.623,1.206a33.48,33.48,0,0,0-3.726,15.377c0,16.614,9.327,28.663,24.48,31.874v25.507c0,2.336-2.664,3.583-6.726,5.22-3.65,1.471-7.794,3.134-7.794,7.13v2.269l41.2-.426v-2.22c0-3.789-4.031-5.3-7.592-6.632-4.134-1.552-6.847-2.744-6.847-5.112,0-6.081-.018-20.448-.027-25.515C332.845,253.257,341.881,241.652,341.881,224.966Zm-27.556,28.089-1.812.354v1.847s.031,19.874.031,27.318c0,5.65,5.641,7.767,9.758,9.309l.686.256-24.883.26c.556-.242,1.117-.466,1.632-.673,4.027-1.623,9.538-3.843,9.538-9.381V253.064l-1.888-.3c-14.143-2.247-22.592-12.641-22.592-27.8a29.15,29.15,0,0,1,2.628-12.1l47.3-.094a29.046,29.046,0,0,1,2.672,12.2C337.4,240.154,329.2,250.132,314.325,253.055Zm-2.969-27.049s-4.1-1.9-5.251-1.726-13.345,7.789-13.345,7.789,10.834,7.273,18.767,7.354,18.538-7.354,18.538-7.354-12.269-7.583-13.587-7.789S311.356,226.006,311.356,226.006Zm-.04,5.377c-4.722,0-14.278.614-14.278.614s8.56-2.534,14.318-2.534S326.092,232,326.092,232,316.038,231.383,311.316,231.383Z" transform="translate(1011.375 1494.37)"/></g></g></g></svg>