<svg xmlns="http://www.w3.org/2000/svg" width="22.313" height="32.141" viewBox="0 0 22.313 32.141"><g transform="translate(-258.448 -208.585)"><path d="M280.761,214.632a12.127,12.127,0,0,0-1.37-5.61l-.229-.437-19.138.037-.227.437a12.141,12.141,0,0,0-1.349,5.573c0,6.021,3.379,10.388,8.872,11.553v9.244c0,.845-.965,1.3-2.438,1.89-1.324.533-2.824,1.136-2.824,2.584v.822l14.929-.154v-.8c0-1.373-1.459-1.921-2.748-2.4-1.5-.562-2.483-.995-2.483-1.853,0-2.2-.008-7.411-.011-9.249C277.485,224.885,280.761,220.681,280.761,214.632Zm-9.987,10.178-.658.13,0,.67s.011,7.2.011,9.9c0,2.049,2.044,2.815,3.536,3.374l.247.093-9.016.094c.2-.086.4-.169.592-.244,1.459-.587,3.457-1.393,3.457-3.4V224.815l-.684-.109c-5.127-.814-8.188-4.58-8.188-10.074a10.542,10.542,0,0,1,.952-4.386l17.142-.034a10.526,10.526,0,0,1,.969,4.42C279.136,220.138,276.167,223.752,270.775,224.81Z" transform="translate(0)"/><path d="M266.573,213.391s-1.767-1.994-3.159-.189,3.187,4.346,3.187,4.346,4.789-2.347,3.114-4.516C268.577,211.562,266.573,213.391,266.573,213.391Z" transform="translate(2.939 2.414)"/></g></svg>