<svg xmlns="http://www.w3.org/2000/svg" width="23.414" height="33.726" viewBox="0 0 23.414 33.726"><defs><style>.a{fill:#c7b764;}</style></defs><g transform="translate(0)"><path class="a" d="M281.862,214.931a12.725,12.725,0,0,0-1.438-5.887l-.24-.459-20.082.039-.239.459a12.74,12.74,0,0,0-1.416,5.848c0,6.318,3.545,10.9,9.309,12.123v9.7c0,.887-1.013,1.361-2.558,1.983-1.39.559-2.964,1.192-2.964,2.711v.863l15.665-.162v-.844c0-1.441-1.531-2.016-2.884-2.522-1.574-.59-2.606-1.044-2.606-1.944,0-2.312-.008-7.776-.012-9.705C278.424,225.689,281.862,221.278,281.862,214.931Zm-10.479,10.68-.691.136,0,.7s.012,7.558.012,10.389c0,2.15,2.145,2.954,3.711,3.54l.259.1-9.461.1c.212-.09.425-.177.621-.256,1.531-.616,3.627-1.461,3.627-3.566V225.616l-.718-.114c-5.38-.854-8.592-4.806-8.592-10.571a11.062,11.062,0,0,1,1-4.6l17.988-.036a11.044,11.044,0,0,1,1.016,4.638C280.157,220.708,277.041,224.5,271.383,225.611Z" transform="translate(-258.448 -208.585)"/><path class="a" d="M266.742,213.438s-1.854-2.092-3.315-.2,3.344,4.56,3.344,4.56,5.026-2.462,3.267-4.739C268.844,211.518,266.742,213.438,266.742,213.438Z" transform="translate(-255.132 -205.861)"/></g></svg>