<svg xmlns="http://www.w3.org/2000/svg" width="22.617" height="32.576" viewBox="0 0 22.617 32.576"><defs><style>.a{fill:#c7b764;}</style></defs><path class="a" d="M259.912,214.918a12.292,12.292,0,0,0-1.387-5.688l-.232-.441-19.4.036-.231.443a12.309,12.309,0,0,0-1.369,5.65c0,6.1,3.426,10.529,8.992,11.709l0,9.37c0,.857-.979,1.315-2.473,1.916-1.343.54-2.861,1.153-2.861,2.621v.832l15.132-.157V240.4c0-1.394-1.481-1.949-2.787-2.438-1.52-.57-2.517-1.007-2.517-1.876,0-2.234-.007-7.512-.01-9.375C256.593,225.309,259.912,221.048,259.912,214.918ZM249.79,225.235l-.665.132v.679s.012,7.3.012,10.035c0,2.076,2.072,2.851,3.586,3.42.072.026.156.058.25.094l-9.141.094c.2-.087.412-.171.6-.247,1.478-.595,3.5-1.41,3.5-3.444l0-10.758-.694-.11c-5.2-.824-8.3-4.642-8.3-10.21a10.689,10.689,0,0,1,.967-4.448l17.375-.033a10.681,10.681,0,0,1,.98,4.481C258.265,220.5,255.255,224.161,249.79,225.235Zm-9.238-8.584c0,3.491,3.084,7.258,8.062,7.258a7.786,7.786,0,0,0,8.035-7.286v-.782l-16.1.03Zm14.461.754a6.64,6.64,0,0,1-12.832.025Zm-2.776-3.306a1.137,1.137,0,1,0-1.137-1.137A1.137,1.137,0,0,0,252.237,214.1Zm-7.686,0a1.137,1.137,0,1,0-1.138-1.137A1.137,1.137,0,0,0,244.551,214.1Z" transform="translate(-237.295 -208.789)"/></svg>