<svg xmlns="http://www.w3.org/2000/svg" width="21.554" height="31.045" viewBox="0 0 21.554 31.045"><path d="M258.849,214.63a11.714,11.714,0,0,0-1.322-5.421l-.221-.421-18.486.035-.22.422a11.731,11.731,0,0,0-1.3,5.384c0,5.816,3.265,10.034,8.57,11.158l0,8.929c0,.816-.932,1.253-2.356,1.826-1.279.515-2.727,1.1-2.727,2.5v.793l14.42-.149v-.775c0-1.328-1.411-1.857-2.656-2.323-1.449-.543-2.4-.959-2.4-1.788,0-2.129-.006-7.158-.009-8.934C255.685,224.533,258.849,220.472,258.849,214.63Zm-9.646,9.832-.634.126v.647s.011,6.956.011,9.563c0,1.978,1.975,2.717,3.418,3.259l.239.089-8.711.089c.195-.083.392-.163.573-.235,1.408-.567,3.339-1.344,3.339-3.282l0-10.252-.661-.105c-4.951-.785-7.909-4.424-7.909-9.73a10.187,10.187,0,0,1,.921-4.238l16.558-.031a10.179,10.179,0,0,1,.934,4.27C257.279,219.947,254.411,223.439,249.2,224.462Zm-8.8-8.18c0,3.326,2.939,6.917,7.683,6.917a7.42,7.42,0,0,0,7.658-6.943v-.746l-15.34.028ZM254.18,217a6.328,6.328,0,0,1-12.229.024Zm-2.645-3.151a1.084,1.084,0,1,0-1.083-1.083A1.084,1.084,0,0,0,251.535,213.85Zm-7.325,0a1.084,1.084,0,1,0-1.085-1.083A1.083,1.083,0,0,0,244.21,213.85Z" transform="translate(-237.295 -208.789)"/></svg>