<svg xmlns="http://www.w3.org/2000/svg" width="21.933" height="31.593" viewBox="0 0 21.933 31.593"><path d="M302.245,214.224a11.939,11.939,0,0,0-1.345-5.516l-.225-.428-18.813.037-.222.43a11.927,11.927,0,0,0-1.327,5.478c0,5.918,3.323,10.211,8.72,11.355v9.086c0,.832-.949,1.276-2.4,1.859-1.3.524-2.776,1.117-2.776,2.54v.808l14.676-.152v-.791c0-1.35-1.436-1.888-2.7-2.363-1.473-.553-2.439-.978-2.439-1.821,0-2.166-.006-7.284-.01-9.089C299.026,224.3,302.245,220.168,302.245,214.224Zm-9.816,10.006-.645.126v.658s.011,7.08.011,9.732c0,2.013,2.01,2.767,3.476,3.316l.244.091-8.864.093c.2-.086.4-.166.582-.24,1.434-.578,3.4-1.369,3.4-3.342V224.234l-.672-.107c-5.038-.8-8.048-4.5-8.048-9.9a10.384,10.384,0,0,1,.936-4.311l16.85-.034a10.346,10.346,0,0,1,.952,4.345C300.647,219.635,297.729,223.189,292.429,224.23Zm-1.058-9.636a6.813,6.813,0,0,0-1.871-.615c-.411.064-4.754,2.775-4.754,2.775s3.859,2.591,6.685,2.62,6.6-2.62,6.6-2.62-4.371-2.7-4.84-2.775A5.529,5.529,0,0,0,291.371,214.595Zm-.014,1.915c-1.682,0-5.086.219-5.086.219a22.963,22.963,0,0,1,5.1-.9,25.078,25.078,0,0,1,5.249.9S293.039,216.51,291.357,216.51Z" transform="translate(-280.312 -208.28)"/></svg>