<svg xmlns="http://www.w3.org/2000/svg" width="23.015" height="33.151" viewBox="0 0 23.015 33.151"><defs><style>.a{fill:#c7b764;}</style></defs><path class="a" d="M303.327,214.517a12.529,12.529,0,0,0-1.411-5.788l-.236-.449-19.741.039-.233.451a12.515,12.515,0,0,0-1.393,5.748c0,6.21,3.487,10.715,9.151,11.915v9.535c0,.873-1,1.339-2.514,1.951-1.364.55-2.913,1.172-2.913,2.665v.848l15.4-.159v-.83c0-1.416-1.507-1.981-2.838-2.479-1.546-.58-2.56-1.026-2.56-1.911,0-2.273-.007-7.644-.01-9.538C299.949,225.093,303.327,220.755,303.327,214.517Zm-10.3,10.5-.677.132v.691s.012,7.429.012,10.212c0,2.112,2.109,2.9,3.648,3.48l.256.1-9.3.1c.208-.091.417-.174.61-.251,1.505-.607,3.565-1.437,3.565-3.507V225.021l-.706-.112c-5.287-.84-8.445-4.725-8.445-10.391a10.9,10.9,0,0,1,.982-4.524l17.681-.035a10.858,10.858,0,0,1,1,4.559C301.651,220.195,298.588,223.924,293.026,225.017Zm-1.11-10.111a7.15,7.15,0,0,0-1.963-.645c-.431.067-4.988,2.912-4.988,2.912s4.05,2.719,7.015,2.749,6.93-2.749,6.93-2.749-4.586-2.835-5.079-2.912A5.8,5.8,0,0,0,291.917,214.906Zm-.015,2.01c-1.765,0-5.337.23-5.337.23a24.1,24.1,0,0,1,5.352-.947,26.315,26.315,0,0,1,5.508.947S293.667,216.916,291.9,216.916Z" transform="translate(-280.312 -208.28)"/></svg>