<svg xmlns="http://www.w3.org/2000/svg" xmlns:xlink="http://www.w3.org/1999/xlink" width="17.599" height="15.35" viewBox="0 0 17.599 15.35"><defs><style>.a{fill:#e6e6e6;}.b{clip-path:url(#a);}.c{fill:#f83d61;}</style><clipPath id="a"><path class="a" d="M17.791,4.355a4.631,4.631,0,0,0-6.55,0l-.892.892-.892-.892a4.632,4.632,0,0,0-6.55,6.55L3.8,11.8l6.55,6.55L16.9,11.8l.892-.892a4.631,4.631,0,0,0,0-6.55Z" transform="translate(-1.549 -2.998)"/></clipPath></defs><g class="b"><path class="a" d="M17.791,4.355a4.631,4.631,0,0,0-6.55,0l-.892.892-.892-.892a4.632,4.632,0,0,0-6.55,6.55L3.8,11.8l6.55,6.55L16.9,11.8l.892-.892a4.631,4.631,0,0,0,0-6.55Z" transform="translate(-1.549 -2.998)"/><path class="c" d="M-7.174-11.838c1.673-3.394,3.912-4.419,11.807,0s10-4.677,12.535,0S18.21,6.116,18.21,6.116h-26.4S-8.847-8.444-7.174-11.838Z" transform="translate(4.216 9.261)"/></g></svg>