<svg xmlns="http://www.w3.org/2000/svg" width="135" height="51.926" viewBox="0 0 135 51.926"><path d="M375.371,339.533H261.765a10.7,10.7,0,0,0-10.7,10.7v19.1a10.7,10.7,0,0,0,10.7,10.7h62.67v11.433l16.005-11.433h34.93a10.7,10.7,0,0,0,10.7-10.7v-19.1A10.7,10.7,0,0,0,375.371,339.533ZM279.644,366.5H276.4l-1.509-4.932c-.369-1.183-.68-2.225-.988-3.35h-.04c-.308,1.125-.637,2.225-1.006,3.408l-1.509,4.874h-3.213l-4.276-14.009h3.231l1.78,6.02c.351,1.18.7,2.435,1.009,3.618h.037c.329-1.2.7-2.46,1.064-3.639l1.859-6h2.243l1.838,6c.369,1.2.735,2.439,1.064,3.639h.04c.308-1.183.677-2.478,1.045-3.676l1.8-5.962h3.1Zm8.806,0h-3.076V352.493h3.076Zm15.249,0h-2.9l-4.2-5.648c-.908-1.219-1.762-2.4-2.63-3.618l-.04.018c.018,1.335.04,2.688.04,4.045v5.2h-2.96V352.493h2.9l4.2,5.651c.911,1.219,1.762,2.4,2.63,3.618l.04-.018c-.018-1.335-.04-2.691-.04-4.045v-5.206H303.7Zm11.415,0h-8.861V352.493H314.9v2.691h-5.572v2.746h4.8v2.554h-4.8v3.328h5.785Zm9.479,0h-1.183V353.578H318.6V352.5h10.814v1.082h-4.816Zm15.228,0-1.722-4.179h-6.87l-1.722,4.179h-1.216l5.822-14.009h1.122L341.1,366.5Zm11.357,0h-8.126V352.5h1.183V365.42h6.943Zm10.955,0-7.257-7.333-.037.018V366.5h-1.183V352.5h1.183v6.386l.037.018,6.773-6.4h1.49l-6.888,6.48,7.468,7.529Zm7.1.21a7.739,7.739,0,0,1-4.139-1.18V364.2a6.856,6.856,0,0,0,4.139,1.414c1.878,0,3.252-.911,3.252-2.728,0-2.073-1.8-2.518-3.618-3.021-2.015-.561-3.987-1.3-3.987-3.828,0-2.4,1.74-3.755,4.276-3.755a7.345,7.345,0,0,1,3.926,1.1v1.277a7.031,7.031,0,0,0-3.947-1.277c-1.817,0-3.075.872-3.075,2.573,0,1.993,1.762,2.4,3.5,2.883,1.993.561,4.1,1.3,4.1,3.987C373.667,365.286,371.865,366.715,369.235,366.715Zm-34.58-12.786c-.485,1.219-.966,2.417-1.548,3.831l-1.433,3.481h5.98l-1.414-3.462c-.521-1.277-1.042-2.573-1.545-3.85Z" transform="translate(-251.066 -339.533)"/></svg>