<svg xmlns="http://www.w3.org/2000/svg" width="21.933" height="31.593" viewBox="0 0 26.446 31.014" preserveAspectRatio="none">
  <path id="Path_163" data-name="Path 163" d="M323.1,211.183a11.552,11.552,0,0,0-1.046-2.889l-.221-.422-18.467.036-.218.422a11.3,11.3,0,0,0-.977,2.853H299.4v8.266h3.8a10.219,10.219,0,0,0,7.2,5.407v8.92c0,.815-.933,1.251-2.354,1.824-1.276.514-2.726,1.1-2.726,2.5v.792l14.407-.147v-.776c0-1.327-1.41-1.855-2.653-2.321-1.447-.543-2.395-.96-2.395-1.788,0-2.126-.008-7.151-.011-8.923a10.712,10.712,0,0,0,7.357-5.482h3.817v-8.266Zm-18.768-1.708,16.541-.033a9.6,9.6,0,0,1,.59,1.741h-8.321l-.735.605-.734-.605h-7.912A9.748,9.748,0,0,1,304.328,209.476Zm9.406,14.056-.634.125,0,.646s.013,6.949.013,9.552c0,1.978,1.971,2.716,3.412,3.256.067.027.149.056.24.091l-8.7.089c.194-.083.391-.163.571-.235,1.408-.566,3.337-1.344,3.337-3.279V223.535l-.662-.105a8.819,8.819,0,0,1-6.315-3.98h5.172l2.014-2.1a.33.33,0,0,1,.241-.114.352.352,0,0,1,.265.118l2.17,2.1h5.4A9.6,9.6,0,0,1,313.734,223.532Zm10.543-5.65H315.49l-1.7-1.64a1.865,1.865,0,0,0-1.419-.576,1.886,1.886,0,0,0-1.353.627l-1.524,1.589h-8.529v-5.13h10.138l1.3,1.068,1.3-1.068h10.574Zm-15.985-3.924h-5.274a.79.79,0,0,0-.79.789v1.022a.791.791,0,0,0,.79.79h5.274a.79.79,0,0,0,.789-.79v-1.022A.788.788,0,0,0,308.292,213.958Zm8.481,2.6h5.274a.79.79,0,0,0,.789-.79v-1.022a.788.788,0,0,0-.789-.789h-5.274a.788.788,0,0,0-.789.789v1.022A.79.79,0,0,0,316.773,216.559Zm-.4-1.813a.4.4,0,0,1,.4-.4h5.274a.4.4,0,0,1,.4.4v1.022a.4.4,0,0,1-.4.4h-5.274a.4.4,0,0,1-.4-.4Z" transform="translate(-299.399 -207.873)" fill="#1a1818"/>
</svg>
