<svg xmlns="http://www.w3.org/2000/svg" width="35.847" height="5.5" viewBox="0 0 35.847 5.5">
  <path id="Path_76" data-name="Path 76" d="M216.814,171.208c-1.691,0-2.524-1.3-3.194-2.345-.657-1.026-1.1-1.655-1.931-1.655s-1.274.629-1.932,1.655c-.669,1.045-1.5,2.345-3.194,2.345s-2.523-1.3-3.192-2.345c-.657-1.026-1.1-1.655-1.929-1.655s-1.271.629-1.927,1.654c-.668,1.046-1.5,2.346-3.191,2.346s-2.523-1.3-3.192-2.345c-.656-1.026-1.1-1.655-1.928-1.655s-1.271.629-1.927,1.655c-.669,1.045-1.5,2.345-3.192,2.345s-2.522-1.3-3.19-2.345c-.657-1.026-1.1-1.655-1.928-1.655v-1.5c1.69,0,2.522,1.3,3.191,2.346.656,1.026,1.1,1.654,1.927,1.654s1.272-.628,1.928-1.654c.669-1.045,1.5-2.346,3.191-2.346s2.523,1.3,3.192,2.346c.656,1.026,1.1,1.654,1.928,1.654s1.271-.628,1.927-1.654c.669-1.045,1.5-2.346,3.191-2.346s2.523,1.3,3.192,2.346c.657,1.026,1.1,1.654,1.929,1.654s1.274-.628,1.932-1.654c.669-1.045,1.5-2.346,3.194-2.346s2.524,1.3,3.194,2.346c.657,1.026,1.1,1.654,1.931,1.654Z" transform="translate(-180.967 -165.708)" fill="#c7b764"/>
</svg>
